<svg xmlns="http://www.w3.org/2000/svg" xmlns:xlink="http://www.w3.org/1999/xlink" fill="none" version="1.1" viewBox="0 0 21 20"><g><g><path d="M8.464469,1.4644650000000001Q7,2.9289300000000003,7,5Q7,7.07106,8.464468,8.53553Q9.92894,10,12,10Q14.07106,10,15.53553,8.53553Q17,7.07106,17,5Q17,2.9289300000000003,15.53553,1.4644650000000001Q14.07106,0,12,0Q9.92894,0,8.464469,1.4644650000000001ZM9.87868,7.12132Q9,6.24264,9,5Q9,3.75736,9.87868,2.87868Q10.75736,2,12,2Q13.24264,2,14.12132,2.87868Q15,3.75736,15,5Q15,6.24264,14.12132,7.12132Q13.24264,8,12,8Q10.75736,8,9.87868,7.12132Z" fill-rule="evenodd" fill="#FFFFFF" fill-opacity="1"/></g><g><path d="M15,11L10,11Q9.90151,11,9.80491,11.019214999999999Q9.70831,11.03843,9.61732,11.076121Q9.52632,11.113812,9.44443,11.16853Q9.36254,11.223249,9.29289,11.292893Q9.22325,11.362537,9.16853,11.44443Q9.11381,11.526322,9.07612,11.617317Q9.03843,11.708311,9.01921,11.80491Q9,11.9015086,9,12Q9,12.0984914,9.01921,12.19509Q9.03843,12.291689,9.07612,12.382683Q9.11381,12.473678,9.16853,12.55557Q9.22325,12.637463,9.29289,12.707107Q9.36254,12.776751,9.44443,12.83147Q9.52632,12.886188,9.61732,12.923879Q9.70831,12.96157,9.80491,12.980785000000001Q9.90151,13,10,13L15,13Q16.61113,13,17.77628,14.35934Q19,15.78701,19,17.83333Q19,17.93984,18.9539,18L8,18Q7.9015086,18,7.80491,18.01921Q7.708311,18.038429999999998,7.617317,18.07612Q7.526322,18.11381,7.44443,18.16853Q7.362537,18.22325,7.292893,18.29289Q7.223249,18.36254,7.16853,18.44443Q7.113812,18.52632,7.076121,18.61732Q7.03843,18.70831,7.019215,18.80491Q7,18.901510000000002,7,19Q7,19.098489999999998,7.019215,19.19509Q7.03843,19.29169,7.076121,19.38268Q7.113812,19.47368,7.16853,19.55557Q7.223249,19.63746,7.292893,19.70711Q7.362537,19.77675,7.44443,19.83147Q7.526322,19.88619,7.617317,19.92388Q7.708311,19.961570000000002,7.80491,19.98078Q7.9015086,20,8,20L19,20Q19.8741,20,20.4664,19.30908Q21,18.68649,21,17.83333Q21,15.04716,19.294800000000002,13.05775Q17.531,11,15,11Z" fill-rule="evenodd" fill="#FFFFFF" fill-opacity="1"/></g><g><path d="M2.1428599999999998,12.75Q2.1428599999999998,12.6515086,2.16207,12.55491Q2.1812899999999997,12.458311,2.21898,12.367317Q2.2566699999999997,12.276322,2.3113900000000003,12.19443Q2.3661000000000003,12.112537,2.43575,12.042893Q2.5053900000000002,11.973249,2.5872900000000003,11.91853Q2.66918,11.863812,2.76017,11.826121Q2.8511699999999998,11.78843,2.9477700000000002,11.769214999999999Q3.04436,11.75,3.14286,11.75Q3.24135,11.75,3.33795,11.769214999999999Q3.43455,11.78843,3.52554,11.826121Q3.61653,11.863812,3.69843,11.91853Q3.78032,11.973249,3.84996,12.042893Q3.91961,12.112537,3.97433,12.19443Q4.02904,12.276322,4.066739999999999,12.367317Q4.10443,12.458311,4.12364,12.55491Q4.142860000000001,12.6515086,4.142860000000001,12.75L4.142860000000001,13.875L5.28571,13.875Q5.3842,13.875,5.4808,13.89421Q5.5774,13.91343,5.6684,13.95112Q5.75939,13.98881,5.84128,14.04353Q5.92317,14.09825,5.99282,14.16789Q6.06246,14.23754,6.11718,14.31943Q6.1719,14.40132,6.20959,14.49232Q6.24728,14.58331,6.2665,14.67991Q6.28571,14.77651,6.28571,14.875Q6.28571,14.97349,6.2665,15.07009Q6.24728,15.16669,6.20959,15.25768Q6.1719,15.34868,6.11718,15.43057Q6.06246,15.51246,5.99282,15.58211Q5.92317,15.65175,5.84128,15.70647Q5.75939,15.76119,5.66839,15.79888Q5.5774,15.83657,5.4808,15.85578Q5.3842,15.875,5.28571,15.875L4.142860000000001,15.875L4.142860000000001,17Q4.142860000000001,17.098489999999998,4.12364,17.19509Q4.10443,17.29169,4.066739999999999,17.38268Q4.02904,17.47368,3.97433,17.55557Q3.91961,17.63746,3.84996,17.70711Q3.78032,17.77675,3.69843,17.83147Q3.61653,17.88619,3.52554,17.92388Q3.43455,17.961570000000002,3.33795,17.98078Q3.24135,18,3.14286,18Q3.04436,18,2.9477700000000002,17.98078Q2.8511699999999998,17.961570000000002,2.76017,17.92388Q2.66918,17.88619,2.5872900000000003,17.83147Q2.5053900000000002,17.77675,2.43575,17.70711Q2.3661000000000003,17.63746,2.3113900000000003,17.55557Q2.2566699999999997,17.47368,2.21898,17.38268Q2.1812899999999997,17.29169,2.16207,17.19509Q2.1428599999999998,17.098489999999998,2.1428599999999998,17L2.1428599999999998,16.99931L2.1428599999999998,15.875L1,15.875Q0.9015086,15.875,0.80491,15.85578Q0.708311,15.83657,0.617317,15.79888Q0.526322,15.76119,0.44443,15.70647Q0.362537,15.65175,0.29289299999999996,15.58211Q0.22324900000000003,15.51246,0.16852999999999996,15.43057Q0.11381200000000002,15.34868,0.076121,15.25768Q0.038429999999999964,15.16669,0.019214999999999982,15.07009Q0,14.97349,0,14.875Q0,14.77651,0.019214999999999982,14.67991Q0.038429999999999964,14.58331,0.076121,14.49232Q0.11381200000000002,14.40132,0.16852999999999996,14.31943Q0.22324900000000003,14.23754,0.29289299999999996,14.16789Q0.362537,14.09825,0.44443,14.04353Q0.526322,13.98881,0.617317,13.95112Q0.708311,13.91343,0.80491,13.89421Q0.9015086,13.875,1,13.875L2.1428599999999998,13.875L2.1428599999999998,12.75L2.1428599999999998,12.75Z" fill-rule="evenodd" fill="#FFFFFF" fill-opacity="1"/></g></g></svg>