<svg xmlns="http://www.w3.org/2000/svg" xmlns:xlink="http://www.w3.org/1999/xlink" fill="none" version="1.1" viewBox="0 0 23.5 23.5"><g><g><path d="M12.4573,2.664818850567932C11.8573,2.657894730567932,11.1842,2.657894730567932,10.4211,2.657894730567932C7.18399,2.657894730567932,5.56544,2.657894730567932,4.2887,3.186728730567932C2.58641,3.8918447305679322,1.23395,5.244304730567932,0.528834,6.9465947305679325C0,8.223334730567931,0,9.841894730567933,0,13.078994730567931L0,16.552594730567932C0,19.82759473056793,0,21.465094730567934,1.01742,22.482494730567932C2.03484,23.49999473056793,3.67233,23.49999473056793,6.94737,23.49999473056793L10.4211,23.49999473056793C13.6581,23.49999473056793,15.2767,23.49999473056793,16.5534,22.971194730567934C18.2557,22.266094730567932,19.6082,20.913594730567933,20.3133,19.211294730567932C20.8421,17.93459473056793,20.8421,16.31599473056793,20.8421,13.078994730567931C20.8421,12.315804730567931,20.8421,11.642694730567932,20.8352,11.042674730567931C20.2215,11.589064730567932,19.4127,11.921054730567931,18.5263,11.921054730567931C16.6078,11.921054730567931,15.0526,10.365814730567932,15.0526,8.447364730567932C13.1341,8.447364730567932,11.5789,6.892124730567932,11.5789,4.973684730567932C11.5789,4.087334730567932,11.9109,3.2785497305679323,12.4573,2.664818850567932ZM6.94737,9.604844730567933C6.30789,9.604844730567933,5.78947,10.123254730567933,5.78947,10.762744730567933C5.78947,11.402174730567932,6.30789,11.920684730567933,6.94737,11.920684730567933L13.8947,11.920684730567933C14.5342,11.920684730567933,15.0526,11.402174730567932,15.0526,10.762744730567933C15.0526,10.123254730567933,14.5342,9.604844730567933,13.8947,9.604844730567933L6.94737,9.604844730567933ZM6.94737,14.236494730567932C6.30789,14.236494730567932,5.78947,14.754894730567932,5.78947,15.394394730567932C5.78947,16.033794730567934,6.30789,16.55229473056793,6.94737,16.55229473056793L10.4211,16.55229473056793C11.0605,16.55229473056793,11.5789,16.033794730567934,11.5789,15.394394730567932C11.5789,14.754894730567932,11.0605,14.236494730567932,10.4211,14.236494730567932L6.94737,14.236494730567932Z" fill-rule="evenodd" fill="currentColor" fill-opacity="1"/></g><g><path d="M17.02631137817383,1.5Q17.02631137817383,1.4263097,17.03354137817383,1.3529740000000001Q17.040761378173826,1.279639,17.05514137817383,1.207365Q17.06951137817383,1.13509,17.09090137817383,1.064573Q17.11229137817383,0.994056,17.140491378173827,0.925975Q17.16869137817383,0.857894,17.20343137817383,0.792905Q17.238171378173828,0.727916,17.279111378173827,0.666645Q17.32005137817383,0.605373,17.36680137817383,0.54841Q17.41355137817383,0.49144999999999994,17.465651378173828,0.43934000000000006Q17.517761378173827,0.38722999999999996,17.574721378173827,0.3404799999999999Q17.631691378173826,0.2937399999999999,17.692961378173827,0.2527999999999999Q17.754231378173827,0.21185999999999994,17.81922137817383,0.17711999999999994Q17.884211378173827,0.14237999999999995,17.95229137817383,0.11417999999999995Q18.020371378173827,0.08597999999999995,18.09089137817383,0.06458999999999993Q18.161401378173828,0.043199999999999905,18.233681378173827,0.028820000000000068Q18.305951378173827,0.014450000000000074,18.37929137817383,0.007220000000000004Q18.452621378173827,0,18.52631137817383,0Q18.60000137817383,0,18.673341378173827,0.007220000000000004Q18.74667137817383,0.014450000000000074,18.81895137817383,0.028820000000000068Q18.891221378173828,0.043199999999999905,18.961741378173826,0.06458999999999993Q19.03226137817383,0.08597999999999995,19.10034137817383,0.11417999999999995Q19.16842137817383,0.14237999999999995,19.233411378173827,0.17711999999999994Q19.29840137817383,0.21185999999999994,19.35967137817383,0.2527999999999999Q19.42094137817383,0.2937399999999999,19.47790137817383,0.3404799999999999Q19.53487137817383,0.38722999999999996,19.58697137817383,0.43934000000000006Q19.639081378173827,0.49144999999999994,19.68583137817383,0.54841Q19.732581378173826,0.605373,19.77352137817383,0.666645Q19.814461378173828,0.727916,19.849201378173827,0.792905Q19.883931378173827,0.857894,19.91213137817383,0.925975Q19.940331378173827,0.994056,19.961721378173827,1.064573Q19.983121378173827,1.13509,19.997491378173827,1.207365Q20.01187137817383,1.279639,20.019091378173826,1.3529740000000001Q20.02631137817383,1.4263097,20.02631137817383,1.5L20.02631137817383,3.47368L22.000001378173828,3.47368Q22.073691378173827,3.47368,22.14702137817383,3.4809099999999997Q22.220361378173827,3.48813,22.29263137817383,3.50251Q22.36491137817383,3.51688,22.435421378173828,3.53827Q22.50594137817383,3.55966,22.57402137817383,3.58786Q22.642101378173827,3.61606,22.70709137817383,3.6508Q22.77208137817383,3.68554,22.833351378173827,3.72648Q22.894621378173827,3.76742,22.951591378173827,3.81417Q23.008551378173827,3.86092,23.060661378173826,3.91302Q23.11276137817383,3.96513,23.15951137817383,4.02209Q23.206261378173828,4.07906,23.247201378173827,4.1403300000000005Q23.288141378173826,4.2016,23.32288137817383,4.26659Q23.357621378173828,4.331580000000001,23.38582137817383,4.39966Q23.41402137817383,4.46774,23.43541137817383,4.53826Q23.45680137817383,4.60877,23.471181378173828,4.68105Q23.485551378173827,4.75332,23.492781378173827,4.82666Q23.500001378173828,4.89999,23.500001378173828,4.97368Q23.500001378173828,5.04737,23.492771378173828,5.12071Q23.485551378173827,5.19404,23.471181378173828,5.26632Q23.45680137817383,5.33859,23.43541137817383,5.40911Q23.41402137817383,5.47963,23.38582137817383,5.54771Q23.357621378173828,5.61579,23.32288137817383,5.68078Q23.288141378173826,5.74577,23.247201378173827,5.80704Q23.206261378173828,5.86831,23.15951137817383,5.92527Q23.11276137817383,5.98224,23.060661378173826,6.03434Q23.008551378173827,6.08645,22.951591378173827,6.1332Q22.894621378173827,6.17995,22.833351378173827,6.22089Q22.77208137817383,6.26183,22.70709137817383,6.29657Q22.642101378173827,6.3313,22.57402137817383,6.3595Q22.50594137817383,6.3877,22.435421378173828,6.40909Q22.36491137817383,6.43049,22.29263137817383,6.44486Q22.220361378173827,6.45924,22.14702137817383,6.46646Q22.073691378173827,6.47368,22.000001378173828,6.47368L20.02631137817383,6.47368L20.02631137817383,8.44737Q20.02631137817383,8.52106,20.019091378173826,8.59439Q20.01187137817383,8.667729999999999,19.997491378173827,8.74Q19.983121378173827,8.812280000000001,19.961721378173827,8.88279Q19.940331378173827,8.95331,19.91213137817383,9.02139Q19.883931378173827,9.08947,19.849201378173827,9.15446Q19.814461378173828,9.21945,19.77352137817383,9.280719999999999Q19.732581378173826,9.34199,19.68583137817383,9.398959999999999Q19.639081378173827,9.455919999999999,19.58697137817383,9.50803Q19.53487137817383,9.56013,19.47790137817383,9.60688Q19.42094137817383,9.65363,19.35967137817383,9.69457Q19.29840137817383,9.73551,19.233411378173827,9.77025Q19.16842137817383,9.80499,19.10034137817383,9.83319Q19.03226137817383,9.86139,18.961741378173826,9.88278Q18.891221378173828,9.90417,18.81895137817383,9.91855Q18.74668137817383,9.93292,18.673341378173827,9.94015Q18.60000137817383,9.94737,18.52631137817383,9.94737Q18.452621378173827,9.94737,18.37929137817383,9.94014Q18.305951378173827,9.93292,18.233681378173827,9.91855Q18.161401378173828,9.90417,18.09089137817383,9.88278Q18.020371378173827,9.86139,17.95229137817383,9.83319Q17.884211378173827,9.80499,17.81922137817383,9.77025Q17.754231378173827,9.73551,17.692961378173827,9.69457Q17.631691378173826,9.65363,17.574721378173827,9.60688Q17.517761378173827,9.56013,17.465651378173828,9.50803Q17.41355137817383,9.455919999999999,17.36680137817383,9.398959999999999Q17.32005137817383,9.34199,17.279111378173827,9.280719999999999Q17.238171378173828,9.21945,17.20343137817383,9.15446Q17.16869137817383,9.08947,17.140491378173827,9.02139Q17.11229137817383,8.95331,17.09090137817383,8.88279Q17.06951137817383,8.812280000000001,17.05514137817383,8.74Q17.040761378173826,8.667729999999999,17.03354137817383,8.59439Q17.02631137817383,8.52106,17.02631137817383,8.44737L17.02631137817383,6.47368L15.052631378173828,6.47368Q14.978941078173827,6.47368,14.905605378173828,6.46646Q14.832270378173828,6.45924,14.759996378173827,6.44486Q14.687721378173828,6.43049,14.617204378173827,6.40909Q14.546687378173829,6.3877,14.478606378173827,6.3595Q14.410525378173828,6.3313,14.345536378173827,6.29657Q14.280547378173829,6.26183,14.219276378173829,6.22089Q14.158004378173828,6.17995,14.101041378173829,6.1332Q14.044081378173829,6.08645,13.991971378173828,6.03434Q13.939861378173829,5.98224,13.893111378173828,5.92527Q13.846371378173828,5.86831,13.805431378173829,5.80704Q13.764491378173828,5.74577,13.729751378173829,5.68078Q13.695011378173827,5.61579,13.666811378173827,5.54771Q13.638611378173827,5.47963,13.617221378173827,5.40911Q13.595831378173829,5.33859,13.581451378173828,5.26632Q13.567081378173828,5.19405,13.559851378173828,5.12071Q13.552631378173828,5.04737,13.552631378173828,4.97368Q13.552631378173828,4.89999,13.559851378173828,4.82666Q13.567081378173828,4.75332,13.581451378173828,4.68105Q13.595831378173829,4.60877,13.617221378173827,4.53826Q13.638611378173827,4.46774,13.666811378173827,4.39966Q13.695011378173827,4.331580000000001,13.729751378173829,4.26659Q13.764491378173828,4.2016,13.805431378173829,4.1403300000000005Q13.846371378173828,4.07906,13.893111378173828,4.02209Q13.939861378173829,3.96513,13.991971378173828,3.91302Q14.044081378173829,3.86092,14.101041378173829,3.81417Q14.158004378173828,3.76742,14.219276378173829,3.72648Q14.280547378173829,3.68554,14.345536378173827,3.6508Q14.410525378173828,3.61606,14.478606378173827,3.58786Q14.546687378173829,3.55966,14.617204378173827,3.53827Q14.687721378173828,3.51688,14.759996378173827,3.50251Q14.832270378173828,3.48813,14.905605378173828,3.4809099999999997Q14.978941078173827,3.47368,15.052631378173828,3.47368L17.02631137817383,3.47368L17.02631137817383,1.5L17.02631137817383,1.5Z" fill-rule="evenodd" fill="currentColor" fill-opacity="1"/></g></g></svg>