<svg xmlns="http://www.w3.org/2000/svg" xmlns:xlink="http://www.w3.org/1999/xlink" fill="none" version="1.1" viewBox="0 0 34 39"><g><path d="M31.3847,26.5167L31.3847,19.0762C31.384,12.5229,26.7448,7.03885,20.4909,5.51915C20.7582,5.00435,20.9227,4.4304,20.9227,3.8155C20.9227,1.71145,19.1628,0,17,0C14.8365,0,13.0767,1.71145,13.0767,3.8155C13.0767,4.4304,13.2418,5.00435,13.5091,5.51915C7.2545,7.03885,2.616,12.5229,2.61533,19.0762L2.61533,26.5167C1.09479,27.0419,0.000662904,28.4388,0,30.0976C0.000662904,32.2055,1.75581,33.9125,3.92333,33.9131L10.593,33.9131C11.1992,36.8154,13.8359,38.9993,17,39C20.1634,38.9993,22.8008,36.8154,23.407,33.9131L30.0767,33.9131C32.2435,33.9125,33.9987,32.2055,34,30.0976C33.9993,28.4388,32.9045,27.0419,31.3847,26.5167ZM17,2.54345C17.7198,2.54345,18.3073,3.1148,18.3073,3.8155C18.3073,4.51555,17.7198,5.0869,17,5.0869C16.2795,5.0869,15.692,4.51555,15.692,3.8155C15.692,3.1148,16.2795,2.54345,17,2.54345ZM10.4613,19.0762C10.4613,19.7782,9.87584,20.3476,9.154,20.3476C8.43149,20.3476,7.846,19.7782,7.846,19.0762C7.84867,14.1635,11.9485,10.1764,17,10.1738C17.7218,10.1738,18.3073,10.7432,18.3073,11.4458C18.3073,12.1478,17.7218,12.7173,17,12.7173C13.3981,12.7237,10.468,15.5733,10.4613,19.0762ZM17,36.4566C15.295,36.4533,13.86,35.3899,13.3186,33.9131L20.6807,33.9131C20.1393,35.3899,18.705,36.4533,17,36.4566Z" fill="#FFFFFF" fill-opacity="1"/></g></svg>