<svg xmlns="http://www.w3.org/2000/svg" xmlns:xlink="http://www.w3.org/1999/xlink" fill="none" version="1.1" width="20" height="21" viewBox="0 0 20 21"><g><path d="M4,0L17.5,0Q17.622799999999998,0,17.744999999999997,0.012039999999999829Q17.8673,0.0240800000000001,17.9877,0.04803999999999986Q18.1082,0.07200000000000006,18.2257,0.10765000000000002Q18.3432,0.14329999999999998,18.456699999999998,0.19030000000000014Q18.5702,0.23729999999999984,18.6785,0.2951999999999999Q18.7868,0.3530899999999999,18.8889,0.4213300000000002Q18.991,0.48956,19.086,0.5674699999999999Q19.1809,0.6453899999999999,19.2678,0.7322299999999999Q19.3546,0.81908,19.4325,0.91402Q19.5104,1.00896,19.5787,1.11107Q19.6469,1.21319,19.7048,1.32151Q19.7627,1.42982,19.8097,1.543292Q19.8567,1.65676,19.8923,1.7742879999999999Q19.928,1.891817,19.952,2.012274Q19.9759,2.132731,19.988,2.254957Q20,2.377183,20,2.5L20,2.50308816L20,16.9Q20,17.0228,19.988,17.145Q19.9759,17.2673,19.952,17.387700000000002Q19.928,17.508200000000002,19.8923,17.625700000000002Q19.8567,17.7432,19.8097,17.8567Q19.7627,17.9702,19.7048,18.0785Q19.6469,18.186799999999998,19.5787,18.288899999999998Q19.5104,18.391,19.4325,18.486Q19.3546,18.5809,19.2678,18.6678Q19.1809,18.7546,19.086,18.8325Q18.991,18.9104,18.8889,18.9787Q18.7868,19.0469,18.6785,19.1048Q18.5702,19.1627,18.456699999999998,19.2097Q18.3432,19.2567,18.2257,19.2924Q18.1082,19.328,17.9877,19.352Q17.8673,19.3759,17.744999999999997,19.388Q17.622799999999998,19.4,17.5,19.4Q17.377200000000002,19.4,17.255000000000003,19.388Q17.1327,19.3759,17.0123,19.352Q16.8918,19.328,16.7743,19.2923Q16.6568,19.2567,16.543300000000002,19.2097Q16.4298,19.1627,16.3215,19.1048Q16.2132,19.0469,16.1111,18.9787Q16.009,18.9104,15.914,18.8325Q15.8191,18.7546,15.7322,18.6678Q15.6454,18.5809,15.5675,18.486Q15.4896,18.391,15.4213,18.288899999999998Q15.3531,18.186799999999998,15.2952,18.0785Q15.2373,17.9702,15.1903,17.8567Q15.1433,17.7432,15.1076,17.625700000000002Q15.072,17.508200000000002,15.048,17.387700000000002Q15.0241,17.2673,15.012,17.145Q15,17.0228,15,16.9L15,8.821950000000001L4.32482,20.2088L4.32384,20.2099Q4.14848,20.3969,3.93879,20.5445Q3.7291,20.692,3.493823,20.794Q3.258546,20.8959,3.0074769999999997,20.948Q2.756408,21,2.5,21Q2.377183,21,2.254957,20.988Q2.132731,20.9759,2.012274,20.952Q1.891817,20.928,1.7742879999999999,20.8924Q1.65676,20.8567,1.543292,20.8097Q1.42982,20.7627,1.32151,20.7048Q1.21319,20.6469,1.11107,20.5787Q1.00896,20.5104,0.91402,20.4325Q0.81908,20.3546,0.7322299999999999,20.2678Q0.6453899999999999,20.1809,0.5674699999999999,20.086Q0.48956,19.991,0.4213300000000002,19.8889Q0.3530899999999999,19.7868,0.2951999999999999,19.6785Q0.23729999999999984,19.5702,0.19030000000000014,19.4567Q0.14329999999999998,19.3432,0.10765000000000002,19.2257Q0.07200000000000006,19.1082,0.04803999999999986,18.9877Q0.0240800000000001,18.8673,0.012039999999999829,18.745Q0,18.6228,0,18.5Q0,18.2639,0.044179999999999886,18.0321Q0.08836999999999984,17.8002,0.1751800000000001,17.5807Q0.2619799999999999,17.3611,0.38835,17.1617Q0.51471,16.962400000000002,0.6761600000000001,16.790100000000002L11.72942,5L4,5Q3.87718,5,3.75496,4.98796Q3.63273,4.97592,3.51227,4.95196Q3.391817,4.928,3.274288,4.89235Q3.1567600000000002,4.8567,3.043291,4.809699999999999Q2.929823,4.762700000000001,2.821508,4.7048000000000005Q2.713193,4.64691,2.611074,4.57867Q2.50895572,4.51044,2.4140168,4.43253Q2.319078,4.35461,2.232233,4.2677700000000005Q2.145388,4.18092,2.067474,4.08598Q1.98956,3.99104,1.921326,3.88893Q1.853092,3.78681,1.795197,3.67849Q1.737301,3.5701799999999997,1.690301,3.456708Q1.6433010000000001,3.3432399999999998,1.6076489999999999,3.225712Q1.571997,3.108183,1.5480369999999999,2.987726Q1.524076,2.867269,1.512038,2.745043Q1.5,2.622817,1.5,2.5Q1.5,2.377183,1.512038,2.254957Q1.524076,2.132731,1.5480369999999999,2.012274Q1.571997,1.891817,1.6076489999999999,1.7742879999999999Q1.6433010000000001,1.65676,1.690301,1.543292Q1.737301,1.42982,1.795197,1.32151Q1.853092,1.21319,1.921326,1.11107Q1.98956,1.00896,2.067474,0.91402Q2.145388,0.81908,2.232233,0.7322299999999999Q2.319078,0.6453899999999999,2.4140168,0.5674699999999999Q2.5089557,0.48956,2.611074,0.4213300000000002Q2.713193,0.3530899999999999,2.821508,0.2951999999999999Q2.929823,0.23729999999999984,3.043291,0.19030000000000014Q3.1567600000000002,0.14329999999999998,3.274288,0.10765000000000002Q3.391817,0.07200000000000006,3.51227,0.04803999999999986Q3.63273,0.0240800000000001,3.75496,0.012039999999999829Q3.87718,0,4,0Z" fill-rule="evenodd" fill="#FFFFFF" fill-opacity="1"/></g></svg>