<svg xmlns="http://www.w3.org/2000/svg" xmlns:xlink="http://www.w3.org/1999/xlink" fill="none" version="1.1" width="367" height="84" viewBox="0 0 367 84"><g><path d="M151.014,0L20,0C8.95431,0,0,8.95431,0,20L0,84L367,84L367,20C367,8.95431,358.046,0,347,0L217.986,0Q217.962,0.818662,217.899,1.63522Q217.837,2.45177,217.735,3.26432Q217.634,4.07687,217.495,4.88353Q217.355,5.69019,217.177,6.48909Q216.999,7.28799,216.784,8.07728Q216.569,8.86657,216.316,9.64441Q216.063,10.4223,215.774,11.1869Q215.485,11.9514,215.16,12.701Q214.834,13.4506,214.474,14.1834Q214.114,14.9162,213.719,15.6306Q213.324,16.3449,212.896,17.0392Q212.468,17.7334,212.007,18.4059Q211.547,19.0784,211.055,19.7276Q210.563,20.3769,210.041,21.0013Q209.519,21.6257,208.967,22.2239Q208.416,22.8221,207.837,23.3926Q207.258,23.9632,206.653,24.5048Q206.048,25.0464,205.417,25.5578Q204.787,26.0691,204.133,26.5491Q203.479,27.0291,202.803,27.4766Q202.127,27.9241,201.431,28.338Q200.735,28.752,200.02,29.1314Q199.304,29.5108,198.572,29.8549Q197.84,30.1989,197.092,30.5067Q196.344,30.8146,195.583,31.0855Q194.821,31.3565,194.048,31.5899Q193.274,31.8233,192.49,32.0187Q191.707,32.214,190.915,32.3709Q190.123,32.5277,189.324,32.6456Q188.526,32.7636,187.722,32.8424Q186.919,32.9211,186.113,32.9606Q185.307,33,184.5,33Q183.693,33,182.887,32.9606Q182.081,32.9211,181.278,32.8424Q180.475,32.7636,179.676,32.6456Q178.877,32.5277,178.085,32.3709Q177.293,32.214,176.51,32.0187Q175.726,31.8233,174.952,31.5899Q174.179,31.3565,173.417,31.0855Q172.656,30.8146,171.908,30.5067Q171.16,30.1989,170.428,29.8549Q169.696,29.5108,168.98,29.1314Q168.265,28.752,167.569,28.338Q166.873,27.9241,166.197,27.4766Q165.521,27.0291,164.867,26.5491Q164.213,26.0691,163.583,25.5578Q162.953,25.0464,162.347,24.5048Q161.742,23.9632,161.163,23.3926Q160.584,22.8221,160.033,22.2239Q159.482,21.6257,158.959,21.0013Q158.437,20.3769,157.945,19.7276Q157.453,19.0784,156.993,18.4059Q156.532,17.7334,156.104,17.0392Q155.676,16.3449,155.281,15.6306Q154.886,14.9162,154.526,14.1834Q154.166,13.4506,153.84,12.701Q153.515,11.9514,153.226,11.1869Q152.937,10.4223,152.684,9.64441Q152.431,8.86657,152.216,8.07728Q152.001,7.28799,151.823,6.48909Q151.645,5.69019,151.505,4.88353Q151.366,4.07687,151.265,3.26432Q151.163,2.45177,151.101,1.63522Q151.038,0.818662,151.014,0Z" fill-rule="evenodd" fill="#161619" fill-opacity="1"/><path d="M20,0L151.014,0Q151.038,0.818662,151.101,1.63522Q151.163,2.45177,151.265,3.26432Q151.366,4.07687,151.505,4.88353Q151.645,5.69019,151.823,6.48909Q152.001,7.28799,152.216,8.07728Q152.431,8.86657,152.684,9.64441Q152.937,10.4223,153.226,11.1869Q153.515,11.9514,153.84,12.701Q154.166,13.4506,154.526,14.1834Q154.886,14.9162,155.281,15.6306Q155.676,16.3449,156.104,17.0392Q156.532,17.7334,156.993,18.4059Q157.453,19.0784,157.945,19.7276Q158.437,20.3769,158.959,21.0013Q159.482,21.6257,160.033,22.2239Q160.584,22.8221,161.163,23.3926Q161.742,23.9632,162.347,24.5048Q162.953,25.0464,163.583,25.5578Q164.213,26.0691,164.867,26.5491Q165.521,27.0291,166.197,27.4766Q166.873,27.9241,167.569,28.338Q168.265,28.752,168.98,29.1314Q169.696,29.5108,170.428,29.8549Q171.16,30.1989,171.908,30.5067Q172.656,30.8146,173.417,31.0855Q174.179,31.3565,174.952,31.5899Q175.726,31.8233,176.51,32.0187Q177.293,32.214,178.085,32.3709Q178.877,32.5277,179.676,32.6456Q180.475,32.7636,181.278,32.8424Q182.081,32.9211,182.887,32.9606Q183.693,33,184.5,33Q185.307,33,186.113,32.9606Q186.919,32.9211,187.722,32.8424Q188.526,32.7636,189.324,32.6456Q190.123,32.5277,190.915,32.3709Q191.707,32.214,192.49,32.0187Q193.274,31.8233,194.048,31.5899Q194.821,31.3565,195.583,31.0855Q196.344,30.8146,197.092,30.5067Q197.84,30.1989,198.572,29.8549Q199.304,29.5108,200.02,29.1314Q200.735,28.752,201.431,28.338Q202.127,27.9241,202.803,27.4766Q203.479,27.0291,204.133,26.5491Q204.787,26.0691,205.417,25.5578Q206.048,25.0464,206.653,24.5048Q207.258,23.9632,207.837,23.3926Q208.416,22.8221,208.967,22.2239Q209.519,21.6257,210.041,21.0013Q210.563,20.3769,211.055,19.7276Q211.547,19.0784,212.007,18.4059Q212.468,17.7334,212.896,17.0392Q213.324,16.3449,213.719,15.6306Q214.114,14.9162,214.474,14.1834Q214.834,13.4506,215.16,12.701Q215.485,11.9514,215.774,11.1869Q216.063,10.4223,216.316,9.64441Q216.569,8.86657,216.784,8.07728Q217,7.28799,217.177,6.48909Q217.355,5.69019,217.495,4.88353Q217.634,4.07687,217.735,3.26432Q217.837,2.45177,217.899,1.63522Q217.962,0.818662,217.986,0L347,0C358.046,0,367,8.95431,367,20L367,84L0,84L0,20C0,8.95431,8.95431,0,20,0ZM1,83L366,83L366,20Q366,12.1299,360.435,6.56497Q354.87,1,347,0.999999L218.944,1Q218.608,7.031,216.28,12.6219Q213.557,19.1597,208.539,24.1049Q203.519,29.0518,196.996,31.6234Q190.968,34,184.5,34Q178.032,34,172.004,31.6234Q165.481,29.0518,160.461,24.1049Q155.443,19.1596,152.72,12.6219Q150.392,7.03125,150.056,1L20,1Q12.13,1,6.56497,6.56497Q1,12.1299,0.999999,20L1,83Z" fill-rule="evenodd" fill="#25262B" fill-opacity="1"/></g></svg>