<svg xmlns="http://www.w3.org/2000/svg" xmlns:xlink="http://www.w3.org/1999/xlink" fill="currentColor" version="1.1" width="auto" height="auto" viewBox="0 0 20.2001953125 20.203125"><g style="opacity:1;"><g><path d="M5.60278765625,19.1472625L5.60295765625,19.1473625Q7.71927765625,20.2015625,10.10009765625,20.2015625Q14.28359765625,20.2015625,17.24189765625,17.2433625Q20.20009765625,14.2850625,20.20009765625,10.1015625Q20.20009765625,5.9180225,17.24189765625,2.9597825Q14.28359765625,0.0015625000000000222,10.10009765625,0.0015614999999999934Q5.91656765625,0.0015625000000000222,2.95833765625,2.9597825Q0.0000976562500000222,5.9180125,0.00009865625000005096,10.1015625Q0.0000976562500000222,12.4825625,1.05447165625,14.5989625Q1.22549465625,14.9428625,1.13879465625,15.2671625L0.57300525625,17.3818625Q0.29905265625,18.4047625,1.04804665625,19.1536625Q1.79690765625,19.9024625,2.81972765625,19.6287625L4.93441765625,19.0629625Q5.25889765625,18.9761625,5.60278765625,19.1472625ZM10.10009765625,19.0015625Q8.001527656250001,19.0015625,6.13785765625,18.0731625L6.13768765625,18.0730625Q5.38738765625,17.6996625,4.62425765625,17.9037625L2.50954765625,18.4695625Q2.15569765625,18.5642625,1.89653765625,18.3050625Q1.63742765625,18.0459625,1.73222765625,17.6920625L2.2980776562500003,15.5770625Q2.50191765625,14.8146625,2.12856765625,14.0638625Q1.20009765625,12.2001625,1.20009865625,10.1015625Q1.20009765625,6.4150725,3.80686765625,3.8083125Q6.41362765625,1.2015625,10.10009765625,1.2015615Q13.78659765625,1.2015625,16.39329765625,3.8083125Q19.00009765625,6.4150725,19.00009765625,10.1015625Q19.00009765625,13.7880625,16.39329765625,16.3947625Q13.78659765625,19.0015625,10.10009765625,19.0015625Z" fill-rule="evenodd" fill="currentColor" fill-opacity="1"/></g><g><path d="M9.50009765625,6.301562309265137Q9.50009765625,6.242467509265136,9.51162665625,6.184508309265136Q9.52315565625,6.126548309265137,9.54576965625,6.071952309265137Q9.56838465625,6.017355309265136,9.60121565625,5.968220309265137Q9.63404765625,5.919084309265137,9.67583365625,5.877298309265137Q9.71761965625,5.835512309265137,9.76675565625,5.802680309265137Q9.81589065625,5.769849309265137,9.87048765625,5.747234309265137Q9.925083656249999,5.724620309265137,9.98304365625,5.7130913092651365Q10.04100285625,5.701562309265137,10.10009765625,5.701562309265137Q10.15919245625,5.701562309265137,10.21715165625,5.7130913092651365Q10.275111656250001,5.724620309265137,10.32970765625,5.747234309265137Q10.38430465625,5.769849309265137,10.43343965625,5.802680309265137Q10.48257565625,5.835512309265137,10.52436165625,5.877298309265137Q10.56614765625,5.919084309265137,10.59897965625,5.968220309265137Q10.63181065625,6.017355309265136,10.65442565625,6.071952309265137Q10.67703965625,6.126548309265137,10.68856865625,6.184508309265136Q10.70009765625,6.242467509265136,10.70009765625,6.301562309265137L10.70009765625,13.901562309265136Q10.70009765625,13.960652309265136,10.68856865625,14.018612309265137Q10.67703965625,14.076572309265137,10.65442565625,14.131172309265136Q10.63181065625,14.185772309265136,10.59897965625,14.234902309265138Q10.56614765625,14.284042309265136,10.52436165625,14.325822309265137Q10.48257565625,14.367612309265137,10.43343965625,14.400442309265136Q10.38430465625,14.433272309265137,10.32970765625,14.455892309265137Q10.275111656250001,14.478502309265137,10.21715165625,14.490032309265137Q10.15919245625,14.501562309265136,10.10009765625,14.501562309265136Q10.04100285625,14.501562309265136,9.98304365625,14.490032309265137Q9.925083656249999,14.478502309265137,9.87048765625,14.455892309265137Q9.81589065625,14.433272309265137,9.76675565625,14.400442309265136Q9.71761965625,14.367612309265137,9.67583365625,14.325822309265137Q9.63404765625,14.284042309265136,9.60121565625,14.234902309265138Q9.56838465625,14.185772309265136,9.54576965625,14.131172309265136Q9.52315565625,14.076572309265137,9.51162665625,14.018612309265137Q9.50009765625,13.960652309265136,9.50009765625,13.901562309265136L9.50009765625,6.301562309265137Z" fill-rule="evenodd" fill="currentColor" fill-opacity="1"/></g><g><path d="M5.700097465515137,8.201562881469727Q5.700097465515137,8.142468081469726,5.7116264655151365,8.084508881469727Q5.723155465515137,8.026548881469726,5.745769465515137,7.9719528814697265Q5.768384465515137,7.917355881469726,5.801215465515137,7.8682208814697265Q5.834047465515137,7.819084881469727,5.875833465515137,7.777298881469727Q5.917619465515137,7.7355128814697265,5.966755465515137,7.7026808814697265Q6.015890465515136,7.669849881469727,6.070487465515137,7.647234881469727Q6.125083465515137,7.624620881469727,6.183043465515136,7.613091881469726Q6.241002665515136,7.601562881469727,6.300097465515137,7.601562881469727Q6.359192265515137,7.601562881469727,6.417151465515137,7.613091881469726Q6.475111465515137,7.624620881469727,6.529707465515137,7.647234881469727Q6.584304465515137,7.669849881469727,6.633439465515137,7.7026808814697265Q6.682575465515137,7.7355128814697265,6.724361465515137,7.777298881469727Q6.766147465515137,7.819084881469727,6.798979465515137,7.8682208814697265Q6.831810465515137,7.917355881469726,6.854425465515137,7.9719528814697265Q6.877039465515137,8.026548881469726,6.888568465515137,8.084508881469727Q6.900097465515136,8.142468081469726,6.900097465515136,8.201562881469727L6.900097465515136,12.001562881469727Q6.900097465515136,12.060652881469727,6.888568465515137,12.118612881469726Q6.877039465515137,12.176572881469728,6.854425465515137,12.231172881469726Q6.831810465515137,12.285772881469725,6.798979465515137,12.334902881469727Q6.766147465515137,12.384042881469727,6.724361465515137,12.425822881469728Q6.682575465515137,12.467612881469726,6.633439465515137,12.500442881469727Q6.584304465515137,12.533272881469728,6.529707465515137,12.555892881469727Q6.475111465515137,12.578502881469728,6.417151465515137,12.590032881469726Q6.359192265515137,12.601562881469727,6.300097465515137,12.601562881469727Q6.241002665515136,12.601562881469727,6.183043465515136,12.590032881469726Q6.125083465515137,12.578502881469728,6.070487465515137,12.555892881469727Q6.015890465515136,12.533272881469728,5.966755465515137,12.500442881469727Q5.917619465515137,12.467612881469726,5.875833465515137,12.425822881469728Q5.834047465515137,12.384042881469727,5.801215465515137,12.334902881469727Q5.768384465515137,12.285772881469725,5.745769465515137,12.231172881469726Q5.723155465515137,12.176572881469728,5.7116264655151365,12.118612881469726Q5.700097465515137,12.060652881469727,5.700097465515137,12.001562881469727L5.700097465515137,8.201562881469727Z" fill-rule="evenodd" fill="currentColor" fill-opacity="1"/></g><g><path d="M13.300097846984864,8.201562881469727Q13.300097846984864,8.142468081469726,13.311626846984863,8.084508881469727Q13.323155846984863,8.026548881469726,13.345769846984863,7.9719528814697265Q13.368384846984863,7.917355881469726,13.401215846984863,7.8682208814697265Q13.434047846984864,7.819084881469727,13.475833846984862,7.777298881469727Q13.517619846984863,7.7355128814697265,13.566755846984863,7.7026808814697265Q13.615890846984863,7.669849881469727,13.670487846984864,7.647234881469727Q13.725083846984862,7.624620881469727,13.783043846984864,7.613091881469726Q13.841003046984863,7.601562881469727,13.900097846984863,7.601562881469727Q13.959192646984864,7.601562881469727,14.017151846984863,7.613091881469726Q14.075111846984864,7.624620881469727,14.129707846984862,7.647234881469727Q14.184304846984864,7.669849881469727,14.233439846984863,7.7026808814697265Q14.282575846984864,7.7355128814697265,14.324361846984864,7.777298881469727Q14.366147846984862,7.819084881469727,14.398979846984863,7.8682208814697265Q14.431810846984863,7.917355881469726,14.454425846984863,7.9719528814697265Q14.477039846984864,8.026548881469726,14.488568846984863,8.084508881469727Q14.500097846984863,8.142468081469726,14.500097846984863,8.201562881469727L14.500097846984863,12.001562881469727Q14.500097846984863,12.060652881469727,14.488568846984863,12.118612881469726Q14.477039846984864,12.176572881469728,14.454425846984863,12.231172881469726Q14.431810846984863,12.285772881469725,14.398979846984863,12.334902881469727Q14.366147846984862,12.384042881469727,14.324361846984864,12.425822881469728Q14.282575846984864,12.467612881469726,14.233439846984863,12.500442881469727Q14.184304846984864,12.533272881469728,14.129707846984862,12.555892881469727Q14.075111846984864,12.578502881469728,14.017151846984863,12.590032881469726Q13.959192646984864,12.601562881469727,13.900097846984863,12.601562881469727Q13.841003046984863,12.601562881469727,13.783043846984864,12.590032881469726Q13.725083846984862,12.578502881469728,13.670487846984864,12.555892881469727Q13.615890846984863,12.533272881469728,13.566755846984863,12.500442881469727Q13.517619846984863,12.467612881469726,13.475833846984862,12.425822881469728Q13.434047846984864,12.384042881469727,13.401215846984863,12.334902881469727Q13.368384846984863,12.285772881469725,13.345769846984863,12.231172881469726Q13.323155846984863,12.176572881469728,13.311626846984863,12.118612881469726Q13.300097846984864,12.060652881469727,13.300097846984864,12.001562881469727L13.300097846984864,8.201562881469727Z" fill-rule="evenodd" fill="currentColor" fill-opacity="1"/></g></g></svg>