<svg xmlns="http://www.w3.org/2000/svg" xmlns:xlink="http://www.w3.org/1999/xlink" fill="none" version="1.1" viewBox="0 0 23 23"><defs><mask id="master_svg0_107_94607" style="mask-type:alpha" maskUnits="userSpaceOnUse"><g><rect x="0" y="0" width="23" height="23" rx="0" fill="currentColor" fill-opacity="1"/></g></mask><mask id="master_svg1_107_94610" style="mask-type:alpha" maskUnits="userSpaceOnUse"><g><rect x="0" y="0" width="23" height="23" rx="0" fill="currentColor" fill-opacity="1"/></g></mask></defs><g style="opacity:1;"><g mask="url(#master_svg0_107_94607)"><g><path d="M8.807923372924805,3.1507579845581057Q7.692585372924805,4.266096984558105,7.692585372924805,5.843446984558105Q7.692585372924805,7.420776984558105,8.807923372924805,8.536106984558106Q9.923265372924805,9.651456984558106,11.500585372924805,9.651446984558106Q13.077935372924806,9.651446984558106,14.193285372924805,8.536116984558106Q15.308625372924805,7.420776984558105,15.308625372924805,5.843446984558105Q15.308625372924805,4.266096984558105,14.193285372924805,3.1507559845581055Q13.077935372924806,2.0354169845581054,11.500585372924805,2.0354169845581054Q9.923255372924805,2.0354169845581054,8.807923372924805,3.1507579845581057ZM9.656455372924805,7.687586984558106Q8.892585372924804,6.923716984558105,8.892585372924804,5.843446984558105Q8.892585372924804,4.763156984558106,9.656455372924805,3.9992869845581054Q10.420315372924804,3.2354169845581056,11.500585372924805,3.2354169845581056Q12.580885372924804,3.2354169845581056,13.344755372924805,3.9992869845581054Q14.108625372924806,4.763156984558106,14.108625372924806,5.843446984558105Q14.108625372924806,6.923716984558105,13.344755372924805,7.687586984558106Q12.580885372924804,8.451446984558105,11.500585372924805,8.451446984558105Q10.420315372924804,8.451446984558105,9.656455372924805,7.687586984558106Z" fill-rule="evenodd" fill="currentColor" fill-opacity="1"/></g></g><g mask="url(#master_svg1_107_94610)"><g><path d="M3.600339273269653,14.494710007629394C4.643711273269654,13.549560007629395,7.037171273269653,11.998250007629395,11.499401273269653,11.998250007629395C15.961581273269653,11.998250007629395,18.355081273269654,13.549560007629395,19.398481273269653,14.494710007629394C19.868081273269652,14.918790007629394,20.054981273269654,15.544080007629395,20.054981273269654,16.171790007629394L20.054981273269654,18.942560007629396C20.055281273269653,19.223580007629394,20.000181273269654,19.501880007629396,19.89278127326965,19.761590007629394C19.785481273269653,20.021300007629392,19.628081273269654,20.257320007629396,19.429481273269655,20.456120007629394C19.230881273269652,20.654950007629395,18.995081273269655,20.812650007629394,18.735481273269656,20.920260007629395C18.475881273269653,21.027860007629393,18.19768127326965,21.083250007629395,17.916581273269653,21.083250007629395L5.082171273269653,21.083250007629395C4.801261273269653,21.083250007629395,4.523111273269653,21.027900007629395,4.2636012732696535,20.920370007629394C4.004081273269653,20.812850007629393,3.7683312732696534,20.655220007629396,3.5697462732696534,20.456540007629393C3.3711712732696535,20.257860007629397,3.2136902732696533,20.021990007629395,3.106303273269653,19.762440007629394C2.998916773269653,19.502880007629393,2.9437244412696533,19.224700007629394,2.9438816388446534,18.943790007629396L2.9438816388446534,16.171790007629394C2.9438816388446534,15.539290007629395,3.1307562732696534,14.914000007629394,3.600339273269653,14.494710007629394ZM11.499391273269653,19.762820007629394L18.357581273269652,19.762820007629394C18.499381273269655,19.762520007629394,18.635281273269655,19.705990007629396,18.735481273269656,19.605600007629395C18.835581273269653,19.505200007629394,18.891881273269654,19.369010007629395,18.891881273269654,19.227220007629395L18.863681273269655,16.171660007629395C18.863681273269655,15.820680007629395,18.760581273269654,15.700620007629395,18.735481273269656,15.676660007629394C17.97358127326965,14.987850007629394,15.553181273269653,13.269020007629395,11.499391273269653,13.269020007629395C7.445641273269653,13.269020007629395,5.055291273269653,14.987850007629394,4.288621273269653,15.676660007629394C4.263471273269653,15.700620007629395,4.160441273269654,15.820680007629395,4.160441273269654,16.171660007629395L4.132191273269653,19.384440007629394C4.132191273269653,19.526280007629396,4.188461273269653,19.662430007629396,4.288621273269653,19.762820007629394C4.3887912732696535,19.863220007629394,4.524641273269653,19.919740007629393,4.666471273269654,19.920050007629396L11.499391273269653,19.762820007629394Z" fill-rule="evenodd" fill="currentColor" fill-opacity="1"/></g></g></g></svg>