<svg xmlns="http://www.w3.org/2000/svg" xmlns:xlink="http://www.w3.org/1999/xlink" fill="none" version="1.1" viewBox="0 0 20 21"><g><g><path d="M7.443507724731445,1.548836Q5.997514724731445,3.0748,5.997514724731445,5.22224Q5.997514724731445,7.36968,7.4435117247314455,8.89563Q8.911174724731445,10.44444,10.998474724731444,10.44444Q13.085804724731446,10.44444,14.553474724731444,8.89563Q15.999474724731446,7.36968,15.999474724731446,5.22224Q15.999474724731446,3.07479,14.553474724731444,1.548834Q13.085804724731446,0,10.998484724731444,0Q8.911174724731445,0,7.443507724731445,1.548836ZM8.895244724731445,7.51995Q7.997514724731445,6.57259,7.997514724731445,5.22224Q7.997514724731445,3.87188,8.895244724731445,2.9245Q9.771294724731446,2,10.998484724731444,2Q12.225684724731446,2,13.101744724731446,2.9245Q13.999474724731446,3.87188,13.999474724731446,5.22224Q13.999474724731446,6.57259,13.101744724731446,7.51995Q12.225684724731446,8.44444,10.998474724731444,8.44444Q9.771294724731446,8.44444,8.895244724731445,7.51995Z" fill-rule="evenodd" fill="#FFFFFF" fill-opacity="1"/></g><g><path d="M10.99831,0Q8.911,0,7.44332,1.548838Q5.99732,3.0748,5.99731,5.22224Q5.99732,6.79297,6.82671,8.102920000000001Q7.66482,9.42653,9.06665,10.03935Q10.48095,10.65755,11.9843,10.34199Q13.4802,10.02798,14.5533,8.89566Q15.6138,7.77638,15.9051,6.23118Q16.1952,4.69219,15.6256,3.2411Q15.0516,1.778686,13.7974,0.894326Q12.5291,0,10.99831,0ZM7.99731,5.22224Q7.99731,3.87189,8.89506,2.9245Q9.77112,2,10.99831,2Q11.8949,2,12.6448,2.52882Q13.4089,3.06763,13.7639,3.97183Q14.1232,4.8872599999999995,13.9397,5.86073Q13.7574,6.8278,13.1016,7.51995Q12.4581,8.19894,11.5734,8.38465Q10.69599,8.56883,9.86776,8.206800000000001Q9.02699,7.83925,8.516490000000001,7.03304Q7.99731,6.21305,7.99731,5.22224ZM0.553195,12.6589Q0,13.2546,0,14.0784Q0,14.9021,0.560058,15.5051L5.47125,20.6878Q5.61288,20.8373,5.80204,20.9186Q5.9912,21,6.19712,21L8.997810000000001,21Q9.0963,21,9.1929,20.9808Q9.2895,20.9616,9.3805,20.9239Q9.47149,20.8862,9.55338,20.8315Q9.63527,20.7767,9.70492,20.7071Q9.77456,20.6375,9.82928,20.5556Q9.884,20.4737,9.92169,20.3827Q9.95938,20.2917,9.9786,20.1951Q9.99781,20.0985,9.99781,20L9.99781,17.0445Q9.99781,16.8525,9.92676,16.6742Q9.8557,16.496000000000002,9.72368,16.3566L4.80556,11.1666Q4.21903,10.55995,3.38643,10.55995Q2.55381,10.55995,1.960403,11.1738L0.553195,12.6589ZM2.01179,14.1294Q2,14.1166,2,14.0784Q2,14.04,2.0186599999999997,14.02L3.38648,12.5766L7.99781,17.443L7.99781,19L6.62717,19L2.01179,14.1294Z" fill-rule="evenodd" fill="#FFFFFF" fill-opacity="1"/></g><g><path d="M10.998040199279785,12.666604042053223L13.998770199279786,12.666604042053223Q16.500400199279785,12.666604042053223,18.261040199279783,14.524602042053223Q20.000000199279786,16.359724042053223,20.000000199279786,18.944384042053223Q20.000000199279786,19.780074042053222,19.432970199279787,20.378574042053224Q18.844040199279785,20.99996404205322,17.999770199279787,20.99996404205322L12.998540199279786,20.99996404205322Q12.900050199279786,20.99996404205322,12.803450199279785,20.980744042053225Q12.706850199279785,20.961534042053223,12.615850199279786,20.923844042053222Q12.524860199279786,20.88615404205322,12.442970199279785,20.831434042053225Q12.361070199279785,20.77671404205322,12.291430199279786,20.707064042053222Q12.221790199279784,20.637424042053222,12.167070199279785,20.555534042053225Q12.112350199279785,20.473634042053224,12.074660199279785,20.382644042053222Q12.036970199279786,20.291654042053224,12.017750199279785,20.195054042053222Q11.998540199279786,20.098454042053223,11.998540199279786,19.99996404205322Q11.998540199279786,19.901474042053223,12.017750199279785,19.80487404205322Q12.036970199279786,19.708274042053223,12.074660199279785,19.61727404205322Q12.112350199279785,19.526284042053224,12.167070199279785,19.444394042053222Q12.221790199279784,19.36249404205322,12.291430199279786,19.29285404205322Q12.361070199279785,19.223214042053222,12.442970199279785,19.168494042053222Q12.524860199279786,19.113774042053223,12.615850199279786,19.076084042053225Q12.706850199279785,19.038394042053223,12.803450199279785,19.019174042053223Q12.900050199279786,18.99996404205322,12.998540199279786,18.99996404205322L17.983820199279783,18.99996404205322Q18.000000199279786,18.980214042053223,18.000000199279786,18.944384042053223Q18.000000199279786,17.156804042053224,16.809300199279786,15.900274042053223Q15.640280199279786,14.666604042053223,13.998770199279786,14.666604042053223L10.998040199279785,14.666604042053223Q10.899548799279785,14.666604042053223,10.802950199279785,14.647389042053224Q10.706351199279785,14.628174042053223,10.615357199279785,14.590483042053222Q10.524362199279786,14.552792042053223,10.442470199279786,14.498074042053222Q10.360577199279785,14.443355042053224,10.290933199279785,14.373711042053223Q10.221289199279784,14.304067042053223,10.166570199279786,14.222174042053222Q10.111852199279785,14.140282042053222,10.074161199279786,14.049287042053223Q10.036470199279785,13.958293042053223,10.017255199279784,13.861694042053223Q9.998040199279785,13.765095442053223,9.998040199279785,13.666604042053223Q9.998040199279785,13.568112642053222,10.017255199279784,13.471514042053222Q10.036470199279785,13.374915042053223,10.074161199279786,13.283921042053223Q10.111852199279785,13.192926042053223,10.166570199279786,13.111034042053223Q10.221289199279784,13.029141042053222,10.290933199279785,12.959497042053222Q10.360577199279785,12.889853042053222,10.442470199279786,12.835134042053223Q10.524362199279786,12.780416042053222,10.615357199279785,12.742725042053223Q10.706351199279785,12.705034042053223,10.802950199279785,12.685819042053222Q10.899548799279785,12.666604042053223,10.998040199279785,12.666604042053223Z" fill-rule="evenodd" fill="#FFFFFF" fill-opacity="1"/></g></g></svg>