<svg xmlns="http://www.w3.org/2000/svg" xmlns:xlink="http://www.w3.org/1999/xlink" fill="currentColor" version="1.1" width="auto" height="auto" viewBox="0 0 26.200000047683716 21.200000047683716"><g style="opacity:1;"><path d="M21.003100023841856,1.018247023841858Q20.92150002384186,0.9342490238418579,20.877400023841858,0.825701023841858Q20.833300023841858,0.7171530238418579,20.833300023841858,0.6000000238418579Q20.833300023841858,0.5409052238418579,20.84490002384186,0.4829460238418579Q20.856400023841857,0.4249860238418579,20.879000023841858,0.37039002384185793Q20.90160002384186,0.3157930238418579,20.934400023841857,0.2666580238418579Q20.967300023841858,0.21752202384185793,21.009100023841857,0.17573602384185794Q21.05090002384186,0.1339500238418579,21.100000023841858,0.10111802384185792Q21.149100023841857,0.06828702384185792,21.203700023841858,0.04567202384185787Q21.25830002384186,0.023058023841857955,21.31630002384186,0.011529023841857944Q21.37420002384186,2.384185793236071e-8,21.43330002384186,2.384185793236071e-8Q21.554900023841856,2.384185793236071e-8,21.66680002384186,0.047303023841857916Q21.778800023841857,0.0946060238418579,21.86350002384186,0.1817540238418579L26.02970002384186,4.466920023841858L26.030200023841857,4.467470023841858Q26.11190002384186,4.551470023841858,26.15590002384186,4.660010023841858Q26.20000002384186,4.768560023841858,26.20000002384186,4.885710023841858Q26.20000002384186,5.002870023841858,26.15590002384186,5.111420023841858Q26.11190002384186,5.219960023841858,26.030200023841857,5.303960023841858L26.029900023841858,5.304270023841858L21.86350002384186,9.589680023841858Q21.778800023841857,9.676820023841858,21.66680002384186,9.724130023841857Q21.554900023841856,9.771430023841859,21.43330002384186,9.771430023841859Q21.37420002384186,9.771430023841859,21.31630002384186,9.759900023841858Q21.25830002384186,9.748370023841858,21.203700023841858,9.725760023841858Q21.149100023841857,9.703140023841858,21.100000023841858,9.670310023841857Q21.05090002384186,9.637480023841858,21.009100023841857,9.595690023841858Q20.967300023841858,9.553910023841858,20.934400023841857,9.504770023841857Q20.90160002384186,9.455630023841858,20.879000023841858,9.401040023841858Q20.856400023841857,9.346440023841858,20.84490002384186,9.288480023841858Q20.833300023841858,9.230520023841859,20.833300023841858,9.171430023841857Q20.833300023841858,9.054280023841859,20.877400023841858,8.945730023841858Q20.92150002384186,8.837180023841858,21.003100023841856,8.753180023841859L21.00340002384186,8.752870023841858L24.179800023841857,5.485720023841858L14.488900023841857,5.485720023841858Q13.016500023841857,5.485720023841858,11.972800023841858,6.559250023841858Q10.922200023841858,7.639880023841858,10.922200023841858,9.171430023841857L10.922200023841858,10.600000023841858Q10.922200023841858,10.659100023841859,10.910700023841859,10.717100023841859Q10.899200023841859,10.775000023841859,10.876500023841858,10.829600023841857Q10.853900023841858,10.884200023841858,10.821100023841858,10.933300023841857Q10.788300023841858,10.982500023841858,10.746500023841858,11.024300023841858Q10.704700023841857,11.066100023841859,10.655600023841858,11.098900023841859Q10.606400023841857,11.131700023841859,10.551830023841857,11.154300023841857Q10.497230023841858,11.176900023841858,10.439280023841858,11.188500023841858Q10.381320023841857,11.200000023841858,10.322220023841858,11.200000023841858Q10.263130023841859,11.200000023841858,10.205170023841857,11.188500023841858Q10.147210023841858,11.176900023841858,10.092610023841859,11.154300023841857Q10.038010023841858,11.131700023841859,9.988880023841858,11.098900023841859Q9.939740023841859,11.066100023841859,9.897960023841858,11.024300023841858Q9.856170023841857,10.982500023841858,9.823340023841858,10.933300023841857Q9.790510023841858,10.884200023841858,9.767890023841858,10.829600023841857Q9.745280023841858,10.775000023841859,9.733750023841857,10.717100023841859Q9.722220023841858,10.659100023841859,9.722220023841858,10.600000023841858L9.722220023841858,9.171430023841857Q9.722220023841858,7.152700023841858,11.112400023841857,5.722750023841858Q12.509600023841857,4.285710023841858,14.488900023841857,4.285710023841858L24.179800023841857,4.285710023841858L21.00360002384186,1.0187290238418578L21.003100023841856,1.018247023841858L21.003100023841856,1.018247023841858ZM15.277800023841857,10.600000023841858Q15.277800023841857,10.540910023841858,15.289300023841857,10.482950023841857Q15.300800023841857,10.424990023841858,15.323400023841858,10.370390023841859Q15.346100023841858,10.315790023841858,15.378900023841858,10.266660023841858Q15.411700023841858,10.217520023841859,15.453500023841858,10.175730023841858Q15.495300023841859,10.133950023841859,15.544400023841858,10.101120023841858Q15.593600023841859,10.068280023841858,15.648200023841857,10.045670023841858Q15.702800023841858,10.023060023841857,15.760700023841858,10.011530023841859Q15.818700023841858,10.000000023841858,15.877800023841857,10.000000023841858Q15.936900023841858,10.000000023841858,15.994800023841858,10.011530023841859Q16.052800023841858,10.023060023841857,16.10740002384186,10.045670023841858Q16.162000023841856,10.068290023841858,16.21110002384186,10.101120023841858Q16.260300023841857,10.133950023841859,16.302000023841856,10.175740023841858Q16.343800023841858,10.217520023841859,16.376700023841856,10.266660023841858Q16.409500023841858,10.315790023841858,16.43210002384186,10.370390023841859Q16.45470002384186,10.424990023841858,16.46630002384186,10.482950023841857Q16.47780002384186,10.540910023841858,16.47780002384186,10.600000023841858L16.47780002384186,12.028600023841857Q16.47780002384186,14.047300023841858,15.087600023841858,15.477200023841858Q13.690400023841859,16.914300023841857,11.711100023841858,16.914300023841857L2.020160023841858,16.914300023841857L5.196050023841858,20.180900023841858L5.196860023841858,20.18180002384186Q5.278530023841858,20.26580002384186,5.322600023841858,20.374300023841858Q5.366670023841858,20.482800023841857,5.366670023841858,20.600000023841858Q5.366670023841858,20.65910002384186,5.355140023841858,20.71710002384186Q5.343610023841858,20.77500002384186,5.3209900238418575,20.82960002384186Q5.298380023841858,20.884200023841856,5.2655500238418576,20.93330002384186Q5.232720023841858,20.982500023841858,5.190930023841858,21.024300023841857Q5.149140023841858,21.06600002384186,5.1000100238418575,21.098900023841857Q5.050870023841858,21.13170002384186,4.996280023841858,21.15430002384186Q4.941680023841858,21.176900023841856,4.883720023841858,21.188500023841858Q4.825760023841858,21.20000002384186,4.766670023841858,21.20000002384186Q4.645120023841858,21.20000002384186,4.533160023841858,21.15270002384186Q4.421200023841858,21.10540002384186,4.3364700238418585,21.018200023841857L0.16997702384185792,16.732700023841858L0.16980302384185791,16.732500023841858Q0.08813802384185787,16.64850002384186,0.04406902384185796,16.540000023841856Q2.384185793236071e-8,16.43140002384186,2.384185793236071e-8,16.31430002384186Q2.384185793236071e-8,16.197100023841855,0.04406902384185796,16.088600023841856Q0.08813802384185787,15.980000023841859,0.16980302384185791,15.896000023841857L0.17024702384185791,15.895600023841858L4.3357200238418585,11.611100023841859L4.3364700238418585,11.610300023841859Q4.421200023841858,11.523200023841857,4.533160023841858,11.475900023841858Q4.645120023841858,11.428600023841858,4.766670023841858,11.428600023841858Q4.825760023841858,11.428600023841858,4.883720023841858,11.440100023841858Q4.941680023841858,11.451600023841857,4.996280023841858,11.474200023841858Q5.050870023841858,11.496900023841858,5.1000100238418575,11.529700023841858Q5.149140023841858,11.562500023841858,5.190930023841858,11.604300023841859Q5.232720023841858,11.646100023841857,5.2655500238418576,11.695200023841858Q5.298380023841858,11.744400023841857,5.3209900238418575,11.799000023841858Q5.343610023841858,11.853600023841858,5.355140023841858,11.911500023841858Q5.366670023841858,11.969500023841858,5.366670023841858,12.028600023841857Q5.366670023841858,12.145700023841858,5.322600023841858,12.254300023841857Q5.278530023841858,12.362800023841858,5.196860023841858,12.446800023841858L2.020160023841858,15.714300023841858L11.711100023841858,15.714300023841858Q13.183500023841859,15.714300023841858,14.227200023841858,14.640800023841859Q15.277800023841857,13.560100023841859,15.277800023841857,12.028600023841857L15.277800023841857,10.600000023841858L15.277800023841857,10.600000023841858Z" fill-rule="evenodd" fill="currentColor" fill-opacity="1"/></g></svg>