<svg xmlns="http://www.w3.org/2000/svg" xmlns:xlink="http://www.w3.org/1999/xlink" fill="none" version="1.1"  viewBox="0 0 40 42"><g><g><path d="M37.344,26.13031889404297C34.9796,26.27731889404297,31.8693,28.69511889404297,28.8702,30.08391889404297C25.1937,31.78421889404297,19.4709,30.415718894042968,19.47,30.415718894042968C20.352,29.99431889404297,23.9401,29.12071889404297,24.6629,28.79450889404297C28.5036,27.06901889404297,28.1775,23.46682739404297,26.3484,23.497621154042967C23.9323,23.536820894042968,22.5135,24.14512189404297,17.6914,24.81712889404297C14.0365,25.326018894042967,9.71393,25.139828894042967,7.64058,25.949028894042968Q4.71379,27.09211889404297,0,34.77952889404297L7.28918,42.00002889404297Q11.8011,37.45702889404297,13.9965,37.45702889404297C18.9988,37.45702889404297,19.201,37.38842889404297,23.846,37.13222889404297C25.8216,37.02232889404297,26.2341,36.94112889404297,27.3643,36.54982889404297C33.3853,34.46872889404297,39.8504,28.926818894042967,39.9695,28.26111889404297C40.2453,26.71692889404297,38.5929,26.051228894042968,37.344,26.13031889404297Z" fill="#FFFFFF" fill-opacity="1"/></g><g><path d="M24.471369173339845,11.736944198608398C24.291217173339845,11.736944198608398,24.144615173339844,11.884643198608398,24.144615173339844,12.069448198608399L24.144615173339844,20.5555341986084C24.144615173339844,20.7396341986084,24.291144173339845,20.8880241986084,24.471369173339845,20.8880241986084L27.446025173339844,20.8880241986084C27.626375173339845,20.8880241986084,27.773255173339845,20.7396341986084,27.773255173339845,20.5555341986084L27.773255173339845,12.069448198608399C27.773255173339845,11.884643198608398,27.626445173339842,11.736944198608398,27.446025173339844,11.736944198608398L24.471369173339845,11.736944198608398Z" fill="#FFFFFF" fill-opacity="1"/></g><g><path d="M29.951414108276367,7.879249462005615L29.951414108276367,20.556252462005617C29.951414108276367,20.740352462005617,30.097604108276368,20.888052462005618,30.27816810827637,20.888052462005618L33.25357410827637,20.888052462005618C33.43406410827637,20.888052462005618,33.580124108276365,20.740352462005617,33.580124108276365,20.556252462005617L33.580124108276365,7.879249462005615C33.580124108276365,7.790350462005615,33.545474108276366,7.704955462005615,33.48439410827637,7.642651862005615C33.422974108276364,7.579654562005615,33.340194108276364,7.544652462005615,33.25371410827637,7.544652462005615L30.27830310827637,7.544652462005615C30.097604108276368,7.544652462005615,29.951414108276367,7.695149462005615,29.951414108276367,7.879249462005615Z" fill="#FFFFFF" fill-opacity="1"/></g><g><path d="M18.664365053100585,8.76816463470459C18.483803053100587,8.76816463470459,18.337820053100586,8.91796263470459,18.337820053100586,9.10276163470459L18.337820053100586,20.55616463470459C18.337820053100586,20.740264634704587,18.483803053100587,20.887964634704588,18.664365053100585,20.887964634704588L21.639980053100587,20.887964634704588C21.820470053100586,20.887964634704588,21.966320053100585,20.740264634704587,21.966320053100585,20.55616463470459L21.966320053100585,9.10276163470459C21.966320053100585,8.91866163470459,21.820470053100586,8.76816463470459,21.639980053100587,8.76816463470459L18.664365053100585,8.76816463470459Z" fill="#FFFFFF" fill-opacity="1"/></g><g><path d="M12.859762220947266,12.330549240112305C12.679404220947266,12.330549240112305,12.533695220947266,12.478248240112304,12.533695220947266,12.663042240112304L12.533695220947266,20.555539240112303C12.533695220947266,20.740329240112303,12.679404220947266,20.888029240112303,12.859762220947266,20.888029240112303L15.835305220947266,20.888029240112303C16.015665220947266,20.888029240112303,16.161645220947264,20.740329240112303,16.161645220947264,20.555539240112303L16.161645220947264,12.663042240112304C16.161645220947264,12.478248240112304,16.015665220947266,12.330549240112305,15.835305220947266,12.330549240112305L12.859762220947266,12.330549240112305Z" fill="#FFFFFF" fill-opacity="1"/></g><g><path d="M13.581783904724121,11.2084C13.66785390472412,11.312,13.790963904724121,11.3659,13.914493904724122,11.3659C14.01391390472412,11.3659,14.11436390472412,11.3316,14.195433904724121,11.2588L20.14173390472412,6.12015L25.357803904724122,10.199C25.54050390472412,10.3432,25.799803904724122,10.3159,25.95090390472412,10.1374L30.769003904724123,4.45346L31.44390390472412,5.05055C31.56130390472412,5.15416,31.725003904724122,5.18565,31.871403904724122,5.13525C32.01820390472412,5.08276,32.12720390472412,4.95466,32.15700390472412,4.79856L32.96100390472412,0.529966C32.99010390472412,0.373861,32.93600390472412,0.212864,32.819103904724116,0.108563C32.70150390472412,0.00496673,32.537703904724125,-0.0272369,32.39150390472412,0.0238617L28.37290390472412,1.44626C28.22530390472412,1.49876,28.11630390472412,1.62686,28.08720390472412,1.78296C28.05770390472412,1.93906,28.111903904724123,2.09936,28.22950390472412,2.20226L28.90380390472412,2.80146L25.338003904724122,7.00915L20.34242390472412,3.10176C20.18000390472412,2.97506,19.952673904724122,2.97996,19.79676390472412,3.11646L12.602829904724121,9.33245C12.51415670472412,9.41015,12.458899404724121,9.51795,12.449519624724122,9.63625C12.440205144724121,9.75455,12.47718090472412,9.87145,12.551200904724121,9.96175L13.581783904724121,11.2084Z" fill="#FFFFFF" fill-opacity="1"/></g></g></svg>