<svg xmlns="http://www.w3.org/2000/svg" xmlns:xlink="http://www.w3.org/1999/xlink" fill="none" version="1.1" viewBox="70.5 66.5 367 84"><defs><filter id="master_svg0_229_13622" filterUnits="objectBoundingBox" color-interpolation-filters="sRGB" x="-101" y="-97" width="569" height="286"><feFlood flood-opacity="0" result="BackgroundImageFix"></feFlood><feColorMatrix in="SourceAlpha" type="matrix" values="0 0 0 0 0 0 0 0 0 0 0 0 0 0 0 0 0 0 127 0"></feColorMatrix><feMorphology radius="7" operator="dilate" in="SourceAlpha" result="effect1_dropShadow"></feMorphology><feOffset dy="4" dx="0"></feOffset><feGaussianBlur stdDeviation="23.5"></feGaussianBlur><feColorMatrix type="matrix" values="0 0 0 0 0 0 0 0 0 0 0 0 0 0 0 0 0 0 0.46000000834465027 0"></feColorMatrix><feBlend mode="normal" in2="BackgroundImageFix" result="effect1_dropShadow"></feBlend><feBlend mode="normal" in="SourceGraphic" in2="effect1_dropShadow" result="shape"></feBlend></filter></defs><g filter="url(#master_svg0_229_13622)"><path d="M221.514,66.5L90.5,66.5C79.45430999999999,66.5,70.5,75.45430999999999,70.5,86.5L70.5,150.5L437.5,150.5L437.5,86.5C437.5,75.45430999999999,428.546,66.5,417.5,66.5L288.486,66.5Q288.462,67.318662,288.399,68.13522Q288.337,68.95177,288.235,69.76432Q288.134,70.57687,287.995,71.38353000000001Q287.855,72.19019,287.677,72.98909Q287.499,73.78799,287.284,74.57728Q287.06899999999996,75.36657,286.81600000000003,76.14441Q286.563,76.9223,286.274,77.6869Q285.985,78.4514,285.65999999999997,79.201Q285.334,79.9506,284.974,80.6834Q284.61400000000003,81.4162,284.219,82.1306Q283.824,82.8449,283.39599999999996,83.5392Q282.96799999999996,84.2334,282.507,84.9059Q282.047,85.5784,281.555,86.2276Q281.063,86.8769,280.541,87.5013Q280.019,88.1257,279.467,88.7239Q278.916,89.3221,278.337,89.8926Q277.75800000000004,90.4632,277.153,91.0048Q276.548,91.5464,275.91700000000003,92.0578Q275.28700000000003,92.56909999999999,274.63300000000004,93.0491Q273.97900000000004,93.5291,273.303,93.9766Q272.627,94.4241,271.93100000000004,94.838Q271.235,95.252,270.52,95.6314Q269.804,96.0108,269.072,96.3549Q268.34000000000003,96.6989,267.592,97.0067Q266.844,97.3146,266.08299999999997,97.5855Q265.321,97.8565,264.548,98.0899Q263.774,98.3233,262.99,98.5187Q262.207,98.714,261.41499999999996,98.8709Q260.623,99.02770000000001,259.824,99.1456Q259.026,99.2636,258.222,99.3424Q257.419,99.4211,256.613,99.4606Q255.807,99.5,255,99.5Q254.193,99.5,253.387,99.4606Q252.581,99.4211,251.778,99.3424Q250.975,99.2636,250.176,99.1456Q249.377,99.02770000000001,248.585,98.8709Q247.793,98.714,247.01,98.5187Q246.226,98.3233,245.452,98.0899Q244.679,97.8565,243.917,97.5855Q243.156,97.3146,242.408,97.0067Q241.66,96.6989,240.928,96.3549Q240.196,96.0108,239.48,95.6314Q238.765,95.252,238.069,94.838Q237.373,94.4241,236.697,93.9766Q236.021,93.5291,235.367,93.0491Q234.713,92.56909999999999,234.083,92.0578Q233.453,91.5464,232.847,91.0048Q232.242,90.4632,231.663,89.8926Q231.084,89.3221,230.533,88.7239Q229.982,88.1257,229.459,87.5013Q228.937,86.8769,228.445,86.2276Q227.953,85.5784,227.493,84.9059Q227.032,84.2334,226.604,83.5392Q226.176,82.8449,225.781,82.1306Q225.386,81.4162,225.026,80.6834Q224.666,79.9506,224.34,79.201Q224.015,78.4514,223.726,77.6869Q223.437,76.9223,223.184,76.14441Q222.931,75.36657,222.716,74.57728Q222.501,73.78799,222.323,72.98909Q222.145,72.19019,222.005,71.38353000000001Q221.866,70.57687,221.765,69.76432Q221.663,68.95177,221.601,68.13522Q221.538,67.318662,221.514,66.5Z" fill-rule="evenodd" fill="#161619" fill-opacity="1" data-darkreader-inline-fill="" style="--darkreader-inline-fill: #121314;"></path><path d="M90.5,66.5L221.514,66.5Q221.538,67.318662,221.601,68.13522Q221.663,68.95177,221.765,69.76432Q221.866,70.57687,222.005,71.38353000000001Q222.145,72.19019,222.323,72.98909Q222.501,73.78799,222.716,74.57728Q222.931,75.36657,223.184,76.14441Q223.437,76.9223,223.726,77.6869Q224.015,78.4514,224.34,79.201Q224.666,79.9506,225.026,80.6834Q225.386,81.4162,225.781,82.1306Q226.176,82.8449,226.604,83.5392Q227.032,84.2334,227.493,84.9059Q227.953,85.5784,228.445,86.2276Q228.937,86.8769,229.459,87.5013Q229.982,88.1257,230.533,88.7239Q231.084,89.3221,231.663,89.8926Q232.242,90.4632,232.847,91.0048Q233.453,91.5464,234.083,92.0578Q234.713,92.56909999999999,235.367,93.0491Q236.021,93.5291,236.697,93.9766Q237.373,94.4241,238.069,94.838Q238.765,95.252,239.48,95.6314Q240.196,96.0108,240.928,96.3549Q241.66,96.6989,242.408,97.0067Q243.156,97.3146,243.917,97.5855Q244.679,97.8565,245.452,98.0899Q246.226,98.3233,247.01,98.5187Q247.793,98.714,248.585,98.8709Q249.377,99.02770000000001,250.176,99.1456Q250.975,99.2636,251.778,99.3424Q252.581,99.4211,253.387,99.4606Q254.193,99.5,255,99.5Q255.807,99.5,256.613,99.4606Q257.419,99.4211,258.222,99.3424Q259.026,99.2636,259.824,99.1456Q260.623,99.02770000000001,261.41499999999996,98.8709Q262.207,98.714,262.99,98.5187Q263.774,98.3233,264.548,98.0899Q265.321,97.8565,266.08299999999997,97.5855Q266.844,97.3146,267.592,97.0067Q268.34000000000003,96.6989,269.072,96.3549Q269.804,96.0108,270.52,95.6314Q271.235,95.252,271.93100000000004,94.838Q272.627,94.4241,273.303,93.9766Q273.97900000000004,93.5291,274.63300000000004,93.0491Q275.28700000000003,92.56909999999999,275.91700000000003,92.0578Q276.548,91.5464,277.153,91.0048Q277.75800000000004,90.4632,278.337,89.8926Q278.916,89.3221,279.467,88.7239Q280.019,88.1257,280.541,87.5013Q281.063,86.8769,281.555,86.2276Q282.047,85.5784,282.507,84.9059Q282.96799999999996,84.2334,283.39599999999996,83.5392Q283.824,82.8449,284.219,82.1306Q284.61400000000003,81.4162,284.974,80.6834Q285.334,79.9506,285.65999999999997,79.201Q285.985,78.4514,286.274,77.6869Q286.563,76.9223,286.81600000000003,76.14441Q287.06899999999996,75.36657,287.284,74.57728Q287.5,73.78799,287.677,72.98909Q287.855,72.19019,287.995,71.38353000000001Q288.134,70.57687,288.235,69.76432Q288.337,68.95177,288.399,68.13522Q288.462,67.318662,288.486,66.5L417.5,66.5C428.546,66.5,437.5,75.45430999999999,437.5,86.5L437.5,150.5L70.5,150.5L70.5,86.5C70.5,75.45430999999999,79.45430999999999,66.5,90.5,66.5ZM71.5,149.5L436.5,149.5L436.5,86.5Q436.5,78.62989999999999,430.935,73.06497Q425.37,67.5,417.5,67.499999L289.44399999999996,67.5Q289.108,73.531,286.78,79.1219Q284.057,85.6597,279.039,90.6049Q274.019,95.5518,267.496,98.1234Q261.46799999999996,100.5,255,100.5Q248.532,100.5,242.504,98.1234Q235.981,95.5518,230.961,90.6049Q225.943,85.6596,223.22,79.1219Q220.892,73.53125,220.556,67.5L90.5,67.5Q82.63,67.5,77.06497,73.06497Q71.5,78.62989999999999,71.499999,86.5L71.5,149.5Z" fill-rule="evenodd" fill="#25262B" fill-opacity="1" data-darkreader-inline-fill="" style="--darkreader-inline-fill: #1e2122;"></path></g></svg>