<svg xmlns="http://www.w3.org/2000/svg" xmlns:xlink="http://www.w3.org/1999/xlink" fill="none" version="1.1" viewBox="0 0 20 20"><g style="opacity:1"><g><path d="M7.40740590927124,9.99999931274414Q7.40740590927124,10.05458931274414,7.40205590927124,10.10890931274414Q7.39670590927124,10.163229312744141,7.38605590927124,10.216769312744141Q7.37540590927124,10.270299312744141,7.35956590927124,10.32253931274414Q7.34371590927124,10.37476931274414,7.32282590927124,10.425199312744141Q7.30194590927124,10.475639312744141,7.276205909271241,10.523779312744141Q7.25047590927124,10.571919312744141,7.22015590927124,10.61729931274414Q7.18982590927124,10.66268931274414,7.1551959092712405,10.70487931274414Q7.120565909271241,10.747079312744141,7.08197590927124,10.78567931274414Q7.043375909271241,10.824269312744141,7.0011759092712404,10.85889931274414Q6.95898590927124,10.89352931274414,6.9135959092712405,10.92385931274414Q6.868215909271241,10.954179312744142,6.820075909271241,10.979909312744141Q6.771935909271241,11.00564931274414,6.7214959092712405,11.026529312744142Q6.67106590927124,11.04741931274414,6.61883590927124,11.06326931274414Q6.56659590927124,11.07910931274414,6.513065909271241,11.08975931274414Q6.459525909271241,11.10040931274414,6.40520590927124,11.10575931274414Q6.35088590927124,11.11110931274414,6.29629590927124,11.11110931274414Q6.241715909271241,11.11110931274414,6.18738590927124,11.10575931274414Q6.13306690927124,11.10040931274414,6.0795299092712405,11.08975931274414Q6.02599390927124,11.07910931274414,5.97375890927124,11.06326931274414Q5.92152390927124,11.04741931274414,5.8710929092712405,11.026529312744142Q5.82066290927124,11.00564931274414,5.77252290927124,10.979909312744141Q5.72438290927124,10.954179312744142,5.67899690927124,10.92385931274414Q5.6336109092712405,10.89352931274414,5.59141590927124,10.85889931274414Q5.549220909271241,10.824269312744141,5.51062290927124,10.78567931274414Q5.47202490927124,10.747079312744141,5.43739690927124,10.70487931274414Q5.40276790927124,10.66268931274414,5.37244190927124,10.61729931274414Q5.34211590927124,10.571919312744141,5.31638490927124,10.523779312744141Q5.29065290927124,10.475639312744141,5.269764209271241,10.425199312744141Q5.248875309271241,10.37476931274414,5.23303000927124,10.32253931274414Q5.2171847092712405,10.270299312744141,5.20653560927124,10.216769312744141Q5.19588650927124,10.163229312744141,5.19053620927124,10.10890931274414Q5.18518590927124,10.05458931274414,5.18518590927124,9.99999931274414Q5.18518590927124,9.945419312744141,5.19053620927124,9.89108931274414Q5.19588650927124,9.836770312744141,5.20653560927124,9.78323331274414Q5.2171847092712405,9.72969731274414,5.23303000927124,9.67746231274414Q5.248875309271241,9.62522731274414,5.269764209271241,9.574796312744141Q5.29065290927124,9.52436631274414,5.31638490927124,9.47622631274414Q5.34211590927124,9.42808631274414,5.37244190927124,9.382700312744142Q5.40276790927124,9.337314312744141,5.43739690927124,9.295119312744141Q5.47202490927124,9.25292431274414,5.51062290927124,9.214326312744141Q5.549220909271241,9.175728312744141,5.59141590927124,9.141100312744141Q5.6336109092712405,9.10647131274414,5.67899690927124,9.07614531274414Q5.72438290927124,9.04581931274414,5.77252290927124,9.020088312744141Q5.82066290927124,8.994356312744141,5.8710929092712405,8.973467612744141Q5.92152390927124,8.95257871274414,5.97375890927124,8.936733412744141Q6.02599390927124,8.92088811274414,6.0795299092712405,8.91023901274414Q6.13306690927124,8.89958991274414,6.18738590927124,8.89423961274414Q6.241715909271241,8.88888931274414,6.29629590927124,8.88888931274414Q6.35088590927124,8.88888931274414,6.40520590927124,8.89423961274414Q6.459525909271241,8.89958991274414,6.513065909271241,8.91023901274414Q6.56659590927124,8.92088811274414,6.61883590927124,8.936733412744141Q6.67106590927124,8.95257871274414,6.7214959092712405,8.973467612744141Q6.771935909271241,8.994356312744141,6.820075909271241,9.020088312744141Q6.868215909271241,9.04581931274414,6.9135959092712405,9.07614531274414Q6.95898590927124,9.10647131274414,7.0011759092712404,9.141100312744141Q7.043375909271241,9.175728312744141,7.08197590927124,9.214326312744141Q7.120565909271241,9.25292431274414,7.1551959092712405,9.295119312744141Q7.18982590927124,9.337314312744141,7.22015590927124,9.382700312744142Q7.25047590927124,9.42808631274414,7.276205909271241,9.47622631274414Q7.30194590927124,9.52436631274414,7.32282590927124,9.574796312744141Q7.34371590927124,9.62522731274414,7.35956590927124,9.67746231274414Q7.37540590927124,9.72969731274414,7.38605590927124,9.78323331274414Q7.39670590927124,9.836770312744141,7.40205590927124,9.89108931274414Q7.40740590927124,9.945419312744141,7.40740590927124,9.99999931274414Z" fill="#FFFFFF" fill-opacity="1" style="mix-blend-mode:passthrough"/></g><g><path d="M11.11110931274414,9.99999931274414Q11.11110931274414,10.05458931274414,11.10575931274414,10.10890931274414Q11.10040931274414,10.163229312744141,11.08975931274414,10.216769312744141Q11.07910931274414,10.270299312744141,11.06326931274414,10.32253931274414Q11.04741931274414,10.37476931274414,11.026529312744142,10.425199312744141Q11.00564931274414,10.475639312744141,10.979909312744141,10.523779312744141Q10.954179312744142,10.571919312744141,10.92385931274414,10.61729931274414Q10.89352931274414,10.66268931274414,10.85889931274414,10.70487931274414Q10.824269312744141,10.747079312744141,10.78567931274414,10.78567931274414Q10.747079312744141,10.824269312744141,10.70487931274414,10.85889931274414Q10.66268931274414,10.89352931274414,10.61729931274414,10.92385931274414Q10.571919312744141,10.954179312744142,10.523779312744141,10.979909312744141Q10.475639312744141,11.00564931274414,10.425199312744141,11.026529312744142Q10.37476931274414,11.04741931274414,10.32253931274414,11.06326931274414Q10.270299312744141,11.07910931274414,10.216769312744141,11.08975931274414Q10.163229312744141,11.10040931274414,10.10890931274414,11.10575931274414Q10.05458931274414,11.11110931274414,9.99999931274414,11.11110931274414Q9.945419312744141,11.11110931274414,9.89108931274414,11.10575931274414Q9.836770312744141,11.10040931274414,9.78323331274414,11.08975931274414Q9.72969731274414,11.07910931274414,9.67746231274414,11.06326931274414Q9.62522731274414,11.04741931274414,9.574796312744141,11.026529312744142Q9.52436631274414,11.00564931274414,9.47622631274414,10.979909312744141Q9.42808631274414,10.954179312744142,9.382700312744142,10.92385931274414Q9.337314312744141,10.89352931274414,9.295119312744141,10.85889931274414Q9.25292431274414,10.824269312744141,9.214326312744141,10.78567931274414Q9.175728312744141,10.747079312744141,9.141100312744141,10.70487931274414Q9.10647131274414,10.66268931274414,9.07614531274414,10.61729931274414Q9.04581931274414,10.571919312744141,9.020088312744141,10.523779312744141Q8.994356312744141,10.475639312744141,8.973467612744141,10.425199312744141Q8.95257871274414,10.37476931274414,8.936733412744141,10.32253931274414Q8.92088811274414,10.270299312744141,8.91023901274414,10.216769312744141Q8.89958991274414,10.163229312744141,8.89423961274414,10.10890931274414Q8.88888931274414,10.05458931274414,8.88888931274414,9.99999931274414Q8.88888931274414,9.945419312744141,8.89423961274414,9.89108931274414Q8.89958991274414,9.836770312744141,8.91023901274414,9.78323331274414Q8.92088811274414,9.72969731274414,8.936733412744141,9.67746231274414Q8.95257871274414,9.62522731274414,8.973467612744141,9.574796312744141Q8.994356312744141,9.52436631274414,9.020088312744141,9.47622631274414Q9.04581931274414,9.42808631274414,9.07614531274414,9.382700312744142Q9.10647131274414,9.337314312744141,9.141100312744141,9.295119312744141Q9.175728312744141,9.25292431274414,9.214326312744141,9.214326312744141Q9.25292431274414,9.175728312744141,9.295119312744141,9.141100312744141Q9.337314312744141,9.10647131274414,9.382700312744142,9.07614531274414Q9.42808631274414,9.04581931274414,9.47622631274414,9.020088312744141Q9.52436631274414,8.994356312744141,9.574796312744141,8.973467612744141Q9.62522731274414,8.95257871274414,9.67746231274414,8.936733412744141Q9.72969731274414,8.92088811274414,9.78323331274414,8.91023901274414Q9.836770312744141,8.89958991274414,9.89108931274414,8.89423961274414Q9.945419312744141,8.88888931274414,9.99999931274414,8.88888931274414Q10.05458931274414,8.88888931274414,10.10890931274414,8.89423961274414Q10.163229312744141,8.89958991274414,10.216769312744141,8.91023901274414Q10.270299312744141,8.92088811274414,10.32253931274414,8.936733412744141Q10.37476931274414,8.95257871274414,10.425199312744141,8.973467612744141Q10.475639312744141,8.994356312744141,10.523779312744141,9.020088312744141Q10.571919312744141,9.04581931274414,10.61729931274414,9.07614531274414Q10.66268931274414,9.10647131274414,10.70487931274414,9.141100312744141Q10.747079312744141,9.175728312744141,10.78567931274414,9.214326312744141Q10.824269312744141,9.25292431274414,10.85889931274414,9.295119312744141Q10.89352931274414,9.337314312744141,10.92385931274414,9.382700312744142Q10.954179312744142,9.42808631274414,10.979909312744141,9.47622631274414Q11.00564931274414,9.52436631274414,11.026529312744142,9.574796312744141Q11.04741931274414,9.62522731274414,11.06326931274414,9.67746231274414Q11.07910931274414,9.72969731274414,11.08975931274414,9.78323331274414Q11.10040931274414,9.836770312744141,11.10575931274414,9.89108931274414Q11.11110931274414,9.945419312744141,11.11110931274414,9.99999931274414Z" fill="#FFFFFF" fill-opacity="1" style="mix-blend-mode:passthrough"/></g><g><path d="M14.8148131930542,9.99999931274414Q14.8148131930542,10.05458931274414,14.8094631930542,10.10890931274414Q14.8041131930542,10.163229312744141,14.7934631930542,10.216769312744141Q14.7828131930542,10.270299312744141,14.766973193054199,10.32253931274414Q14.751123193054198,10.37476931274414,14.7302331930542,10.425199312744141Q14.709353193054199,10.475639312744141,14.6836131930542,10.523779312744141Q14.6578831930542,10.571919312744141,14.627563193054199,10.61729931274414Q14.5972331930542,10.66268931274414,14.5626031930542,10.70487931274414Q14.5279731930542,10.747079312744141,14.489383193054199,10.78567931274414Q14.4507831930542,10.824269312744141,14.408583193054199,10.85889931274414Q14.366393193054199,10.89352931274414,14.3210031930542,10.92385931274414Q14.2756231930542,10.954179312744142,14.2274831930542,10.979909312744141Q14.1793431930542,11.00564931274414,14.1289031930542,11.026529312744142Q14.078473193054199,11.04741931274414,14.0262431930542,11.06326931274414Q13.9740031930542,11.07910931274414,13.9204731930542,11.08975931274414Q13.8669331930542,11.10040931274414,13.812613193054199,11.10575931274414Q13.758293193054199,11.11110931274414,13.7037031930542,11.11110931274414Q13.6491231930542,11.11110931274414,13.5947931930542,11.10575931274414Q13.5404741930542,11.10040931274414,13.4869371930542,11.08975931274414Q13.433401193054198,11.07910931274414,13.381166193054199,11.06326931274414Q13.3289311930542,11.04741931274414,13.2785001930542,11.026529312744142Q13.228070193054199,11.00564931274414,13.179930193054199,10.979909312744141Q13.131790193054199,10.954179312744142,13.0864041930542,10.92385931274414Q13.0410181930542,10.89352931274414,12.9988231930542,10.85889931274414Q12.956628193054199,10.824269312744141,12.9180301930542,10.78567931274414Q12.8794321930542,10.747079312744141,12.8448041930542,10.70487931274414Q12.8101751930542,10.66268931274414,12.779849193054199,10.61729931274414Q12.749523193054198,10.571919312744141,12.7237921930542,10.523779312744141Q12.6980601930542,10.475639312744141,12.6771714930542,10.425199312744141Q12.656282593054199,10.37476931274414,12.6404372930542,10.32253931274414Q12.6245919930542,10.270299312744141,12.6139428930542,10.216769312744141Q12.603293793054199,10.163229312744141,12.5979434930542,10.10890931274414Q12.5925931930542,10.05458931274414,12.5925931930542,9.99999931274414Q12.5925931930542,9.945419312744141,12.5979434930542,9.89108931274414Q12.603293793054199,9.836770312744141,12.6139428930542,9.78323331274414Q12.6245919930542,9.72969731274414,12.6404372930542,9.67746231274414Q12.656282593054199,9.62522731274414,12.6771714930542,9.574796312744141Q12.6980601930542,9.52436631274414,12.7237921930542,9.47622631274414Q12.749523193054198,9.42808631274414,12.779849193054199,9.382700312744142Q12.8101751930542,9.337314312744141,12.8448041930542,9.295119312744141Q12.8794321930542,9.25292431274414,12.9180301930542,9.214326312744141Q12.956628193054199,9.175728312744141,12.9988231930542,9.141100312744141Q13.0410181930542,9.10647131274414,13.0864041930542,9.07614531274414Q13.131790193054199,9.04581931274414,13.179930193054199,9.020088312744141Q13.228070193054199,8.994356312744141,13.2785001930542,8.973467612744141Q13.3289311930542,8.95257871274414,13.381166193054199,8.936733412744141Q13.433401193054198,8.92088811274414,13.4869371930542,8.91023901274414Q13.5404741930542,8.89958991274414,13.5947931930542,8.89423961274414Q13.6491231930542,8.88888931274414,13.7037031930542,8.88888931274414Q13.758293193054199,8.88888931274414,13.812613193054199,8.89423961274414Q13.8669331930542,8.89958991274414,13.9204731930542,8.91023901274414Q13.9740031930542,8.92088811274414,14.0262431930542,8.936733412744141Q14.078473193054199,8.95257871274414,14.1289031930542,8.973467612744141Q14.1793431930542,8.994356312744141,14.2274831930542,9.020088312744141Q14.2756231930542,9.04581931274414,14.3210031930542,9.07614531274414Q14.366393193054199,9.10647131274414,14.408583193054199,9.141100312744141Q14.4507831930542,9.175728312744141,14.489383193054199,9.214326312744141Q14.5279731930542,9.25292431274414,14.5626031930542,9.295119312744141Q14.5972331930542,9.337314312744141,14.627563193054199,9.382700312744142Q14.6578831930542,9.42808631274414,14.6836131930542,9.47622631274414Q14.709353193054199,9.52436631274414,14.7302331930542,9.574796312744141Q14.751123193054198,9.62522731274414,14.766973193054199,9.67746231274414Q14.7828131930542,9.72969731274414,14.7934631930542,9.78323331274414Q14.8041131930542,9.836770312744141,14.8094631930542,9.89108931274414Q14.8148131930542,9.945419312744141,14.8148131930542,9.99999931274414Z" fill="#FFFFFF" fill-opacity="1" style="mix-blend-mode:passthrough"/></g><g><path d="M10,0C4.47717,0,0,4.47717,0,10C0,15.5229,4.47717,20,10,20C15.5229,20,20,15.5229,20,10C20,4.47717,15.5229,0,10,0ZM1.39535,10C1.39535,5.24778,5.24778,1.39535,10,1.39535C14.7522,1.39535,18.6047,5.24778,18.6047,10C18.6047,14.7522,14.7522,18.6047,10,18.6047C5.24778,18.6047,1.39535,14.7522,1.39535,10Z" fill-rule="evenodd" fill="#FFFFFF" fill-opacity="1" style="mix-blend-mode:passthrough"/></g></g></svg>