<svg xmlns="http://www.w3.org/2000/svg" xmlns:xlink="http://www.w3.org/1999/xlink" fill="currentColor" version="1.1" viewBox="0 0 20.2001953125 20.203125"><g style="opacity:1;"><g><path d="M4.82444765625,0.1773825L6.72435765625,2.0773025Q6.80875765625,2.1616925,6.85442765625,2.2719525000000003Q6.90009765625,2.3822125,6.90009765625,2.5015625Q6.90009765625,2.6209125,6.85442765625,2.7311725Q6.80874765625,2.8414325,6.72435765625,2.9258225L4.82435765625,4.8258225Q4.73996765625,4.9102225,4.62970765625,4.9558925Q4.51944765625,5.0015625,4.40009765625,5.0015625Q4.34099765625,5.0015625,4.28304765625,4.9900325Q4.22508765625,4.9785025,4.17048765625,4.9558925Q4.11588765625,4.9332725,4.06675765625,4.9004425Q4.01761765625,4.8676125,3.97583765625,4.8258225Q3.93404765625,4.7840425,3.90121765625,4.7349025Q3.86838765625,4.6857725,3.84576765625,4.6311725Q3.82315765625,4.5765725,3.81162765625,4.5186125Q3.80009765625,4.4606525,3.80009765625,4.4015625Q3.80009765625,4.2822125,3.84576765625,4.1719525Q3.89143765625,4.0616924999999995,3.97583765625,3.9773025L3.97625765625,3.9768725L4.85156765625,3.1015625L4.40009765625,3.1015625Q3.07456765625,3.1015625,2.1373376562499997,4.0388025Q1.20009765625,4.9760325,1.20009765625,6.3015625Q1.20009765625,6.3606525,1.18856865625,6.4186125Q1.1770396562499998,6.4765725,1.15442565625,6.5311725Q1.1318106562499999,6.5857725,1.09897965625,6.6349025Q1.06614765625,6.6840425,1.02436165625,6.7258225Q0.98257565625,6.7676125,0.93343965625,6.8004425Q0.88430465625,6.8332725,0.82970765625,6.8558925Q0.77511165625,6.8785025,0.71715165625,6.8900325Q0.65919245625,6.9015625,0.60009765625,6.9015625Q0.54100285625,6.9015625,0.48304365625,6.8900325Q0.42508365625,6.8785025,0.37048765625,6.8558925Q0.31589065625,6.8332725,0.26675565625,6.8004425Q0.21761965625000002,6.7676125,0.17583365625000003,6.7258225Q0.13404765624999998,6.6840425,0.10121565625000001,6.6349025Q0.06838465625000001,6.5857725,0.04576965624999996,6.5311725Q0.023155656250000045,6.4765725,0.011626656250000034,6.4186125Q0.0000976562500000222,6.3606525,0.0000976562500000222,6.3015625L0.0000976562500000222,6.2999025Q0.0006836562499999976,4.4783925,1.28880665625,3.1902725Q2.57751765625,1.9015625,4.40009765625,1.9015625L4.85156765625,1.9015625L3.97615765625,1.0261555L3.97583765625,1.0258265Q3.89143765625,0.9414355,3.84576765625,0.8311725Q3.80009765625,0.7209095,3.80009765625,0.6015625Q3.80009765625,0.5424677,3.81162765625,0.4845085Q3.82315765625,0.4265485,3.84576765625,0.3719525Q3.86838765625,0.3173555,3.90121765625,0.2682205Q3.93404765625,0.21908450000000002,3.97583765625,0.17729850000000003Q4.01761765625,0.13551249999999998,4.06675765625,0.10268050000000001Q4.11588765625,0.06984950000000001,4.17048765625,0.04723449999999996Q4.22508765625,0.024620500000000045,4.28304765625,0.013091500000000034Q4.34099765625,0.0015625000000000222,4.40009765625,0.0015625000000000222Q4.51944765625,0.0015625000000000222,4.62970765625,0.04723449999999996Q4.73996765625,0.09290750000000003,4.82435765625,0.17729850000000003L4.82444765625,0.1773825ZM15.17669765625,11.2404625L15.17559765625,11.2407625Q15.12759765625,11.2530625,15.08219765625,11.2731625Q15.03689765625,11.2932625,14.99549765625,11.3204625Q14.95409765625,11.3476625,14.91769765625,11.3813625Q14.88129765625,11.4150625,14.85089765625,11.4541625Q14.82049765625,11.4933625,14.79699765625,11.5370625Q14.77349765625,11.5806625,14.75739765625,11.6275625Q14.74139765625,11.6744625,14.73319765625,11.7233625Q14.72509765625,11.7722625,14.72509765625,11.8218625Q14.72509765625,11.8809625,14.73659765625,11.9388625Q14.74819765625,11.9968625,14.77079765625,12.0514625Q14.79339765625,12.1060625,14.82619765625,12.1551625Q14.85899765625,12.2042625,14.90079765625,12.2460625Q14.94259765625,12.2878625,14.99179765625,12.3206625Q15.04089765625,12.3535625,15.09549765625,12.3761625Q15.15009765625,12.3987625,15.20799765625,12.4102625Q15.26599765625,12.4218625,15.32509765625,12.4218625Q15.40109765625,12.4218625,15.47459765625,12.4028625Q17.53499765625,11.8726625,18.85639765625,10.1910725Q20.20009765625,8.481002499999999,20.20009765625,6.3015625Q20.20009765625,3.6920925,18.35479765625,1.8468325Q16.50959765625,0.0015625000000000222,13.90009765625,0.0015625000000000222Q11.72069765625,0.0015625000000000222,10.01058765625,1.3453125Q8.32897765625,2.6666925,7.79876765625,4.7270325Q7.77983765625,4.8006025,7.77983765625,4.8765625Q7.77983765625,4.9356625,7.79136765625,4.9936125Q7.80289765625,5.0515725,7.82550765625,5.1061725Q7.84812765625,5.1607725,7.88095765625,5.2099025Q7.91378765625,5.2590425,7.95557765625,5.3008225Q7.99735765625,5.3426125,8.04649765625,5.3754425Q8.095627656249999,5.4082725,8.15022765625,5.4308925Q8.20482765625,5.4535025,8.26278765625,5.4650325Q8.32074765625,5.4765625,8.37983765625,5.4765625Q8.42940765625,5.4765625,8.47830765625,5.4684225Q8.527207656249999,5.4602925,8.57411765625,5.4442425Q8.62101765625,5.4281925,8.66464765625,5.4046625Q8.70827765625,5.3811325,8.74745765625,5.3507525Q8.78663765625,5.3203825,8.82029765625,5.2839925Q8.85395765625,5.2476025,8.88118765625,5.2061825Q8.90842765625,5.1647625,8.92848765625,5.1194325Q8.94855765625,5.0741025,8.96090765625,5.0260925Q9.38986765625,3.3592125,10.75199765625,2.2888625Q12.13569765625,1.2015625,13.90009765625,1.2015625Q16.012497656249998,1.2015625,17.50629765625,2.6953525Q19.00009765625,4.1891525000000005,19.00009765625,6.3015625Q19.00009765625,8.0659425,17.91279765625,9.4496525Q16.84279765625,10.8113625,15.17669765625,11.2404625ZM10.75479765625,9.4468325Q8.90956765625,7.6015625,6.30009765625,7.6015625Q3.69062765625,7.6015625,1.84536765625,9.4468325Q0.0000976562500000222,11.2920625,0.0000976562500000222,13.9015625Q0.0000976562500000222,16.5110625,1.84536765625,18.3562625Q3.69062765625,20.2015625,6.30009765625,20.2015625Q8.90956765625,20.2015625,10.75479765625,18.3562625Q12.60009765625,16.5110625,12.60009765625,13.9015625Q12.60009765625,11.2920625,10.75479765625,9.4468325ZM2.69388765625,10.2953525Q4.1876876562500005,8.8015625,6.30009765625,8.8015625Q8.41250765625,8.8015625,9.90630765625,10.2953525Q11.40009765625,11.7891625,11.40009765625,13.9015625Q11.40009765625,16.013962499999998,9.90630765625,17.5077625Q8.41250765625,19.0015625,6.30009765625,19.0015625Q4.1876876562500005,19.0015625,2.69388765625,17.5077625Q1.20009765625,16.013962499999998,1.20009765625,13.9015625Q1.20009765625,11.7891625,2.69388765625,10.2953525ZM19.00009765625,13.9015625Q19.00009765625,13.8424625,19.01159765625,13.7844625Q19.02319765625,13.7265625,19.04579765625,13.6719625Q19.06839765625,13.6173625,19.10119765625,13.5682625Q19.13399765625,13.5190625,19.17579765625,13.4772625Q19.21759765625,13.4354625,19.26679765625,13.4026625Q19.31589765625,13.3698625,19.37049765625,13.3472625Q19.42509765625,13.3246625,19.48299765625,13.3130625Q19.54099765625,13.3015625,19.60009765625,13.3015625Q19.65919765625,13.3015625,19.71719765625,13.3130625Q19.77509765625,13.3246625,19.82969765625,13.3472625Q19.88429765625,13.3698625,19.93339765625,13.4026625Q19.98259765625,13.4354625,20.02439765625,13.4772625Q20.06609765625,13.5190625,20.09899765625,13.5682625Q20.13179765625,13.6173625,20.15439765625,13.6719625Q20.17699765625,13.7265625,20.18859765625,13.7844625Q20.20009765625,13.8424625,20.20009765625,13.9015625Q20.20009765625,15.7241625,18.91139765625,17.0128625Q17.62269765625,18.3015625,15.80009765625,18.3015625L15.34859765625,18.3015625L16.224397656249998,19.1772625Q16.30879765625,19.2616625,16.35439765625,19.3719625Q16.40009765625,19.4822625,16.40009765625,19.6015625Q16.40009765625,19.6606625,16.38859765625,19.7186625Q16.376997656249998,19.7765625,16.35439765625,19.8311625Q16.33179765625,19.8857625,16.298997656250002,19.9348625Q16.26609765625,19.9840625,16.224397656249998,20.0258625Q16.18259765625,20.0675625,16.13339765625,20.1004625Q16.08429765625,20.1332625,16.02969765625,20.1558625Q15.97509765625,20.1784625,15.91719765625,20.1900625Q15.85919765625,20.2015625,15.80009765625,20.2015625Q15.68079765625,20.2015625,15.57049765625,20.1558625Q15.46019765625,20.1102625,15.37579765625,20.0258625L13.47579765625,18.1258625Q13.39139765625,18.0414625,13.34579765625,17.9311625Q13.30009765625,17.8208625,13.30009765625,17.7015625Q13.30009765625,17.5822625,13.34579765625,17.4719625Q13.39139765625,17.3616625,13.47579765625,17.2772625L15.37579765625,15.3772625Q15.46019765625,15.2928625,15.57049765625,15.2472625Q15.68079765625,15.2015625,15.80009765625,15.2015625Q15.85919765625,15.2015625,15.91719765625,15.2130625Q15.97509765625,15.2246625,16.02969765625,15.2472625Q16.08429765625,15.2698625,16.13339765625,15.3026625Q16.18259765625,15.3354625,16.224397656249998,15.3772625Q16.26609765625,15.4190625,16.298997656250002,15.4682625Q16.33179765625,15.5173625,16.35439765625,15.5719625Q16.376997656249998,15.6265625,16.38859765625,15.6844625Q16.40009765625,15.7424625,16.40009765625,15.8015625Q16.40009765625,15.9208625,16.35439765625,16.0311625Q16.30879765625,16.1414625,16.224397656249998,16.225862499999998L15.34859765625,17.1015625L15.80009765625,17.1015625Q17.12559765625,17.1015625,18.06289765625,16.1643625Q19.00009765625,15.2270625,19.00009765625,13.9015625Z" fill-rule="" fill="currentColor" fill-opacity="1"/></g></g></svg>