<svg xmlns="http://www.w3.org/2000/svg" xmlns:xlink="http://www.w3.org/1999/xlink" fill="none" version="1.1" viewBox="0 0 21 21"><g style="opacity:0.5;"><g><path d="M7.862871389221191,1.52943Q6.333222389221191,3.05892,6.333222389221191,5.22192Q6.333222389221191,7.38494,7.862867389221192,8.91443Q9.39246238922119,10.44388,11.555542389221191,10.44388Q13.718622389221192,10.44388,15.248082389221192,8.914390000000001Q16.777512389221194,7.38494,16.777512389221194,5.22193Q16.777512389221194,3.05892,15.248082389221192,1.529471Q13.718632389221192,0,11.555542389221191,0Q9.39246238922119,0,7.862871389221191,1.52943ZM9.277012389221191,7.50015Q8.333222389221191,6.55645,8.333222389221191,5.22192Q8.333222389221191,3.88741,9.277012389221191,2.94372Q10.220832389221192,2,11.555542389221191,2Q12.890192389221191,2,13.833862389221192,2.94368Q14.77751238922119,3.88734,14.77751238922119,5.22193Q14.77751238922119,6.55652,13.833862389221192,7.5002Q12.890192389221191,8.44388,11.555542389221191,8.44388Q10.220832389221192,8.44388,9.277012389221191,7.50015Z" fill-rule="evenodd" fill="#FFFFFF" fill-opacity="1"/></g><g><path d="M7.86307,1.529382L7.86288,1.529577Q6.33331,3.0589,6.33331,5.22192Q6.33331,6.80604,7.21345,8.12313Q8.093060000000001,9.43987,9.5571,10.04638Q11.0206,10.6526,12.5742,10.34354Q14.1281,10.03447,15.2482,8.91437Q16.3682,7.79424,16.677500000000002,6.24083Q16.9861,4.68726,16.380499999999998,3.22388Q15.7739,1.75989,14.4565,0.879954Q13.1397,0,11.5556,0Q9.39213,0,7.86307,1.529382ZM8.33331,5.22192Q8.33331,3.88734,9.27711,2.9437699999999998L9.2773,2.94358Q10.2206,2,11.5556,2Q12.5329,2,13.3456,2.5430900000000003Q14.1585,3.086,14.5325,3.98869Q14.9063,4.89204,14.716,5.85033Q14.5251,6.80893,13.8339,7.5002Q13.1429,8.19125,12.1839,8.38198Q11.2255,8.572659999999999,10.32255,8.19865Q9.41907,7.82437,8.876339999999999,7.01192Q8.33331,6.1993,8.33331,5.22192ZM0.29291900000000004,15.4284Q0.15225500000000003,15.2878,0.07612699999999994,15.104Q0,14.9202,0,14.7213Q0,14.6228,0.019214999999999982,14.5262Q0.038429999999999964,14.4296,0.076121,14.3386Q0.11381200000000002,14.2476,0.16852999999999996,14.1657Q0.22324900000000003,14.0838,0.29289299999999996,14.0142Q0.362537,13.9446,0.44443,13.8898Q0.526322,13.8351,0.617317,13.7974Q0.708311,13.7597,0.80491,13.7405Q0.9015086,13.7213,1,13.7213Q1.198903,13.7213,1.382667,13.7974Q1.5664310000000001,13.8735,1.707081,14.0142L2.58333,14.8904L3.45957,14.0142Q3.60022,13.8735,3.78399,13.7974Q3.96775,13.7213,4.16666,13.7213Q4.26515,13.7213,4.36174,13.7405Q4.45834,13.7597,4.54934,13.7974Q4.6403300000000005,13.8351,4.72222,13.8898Q4.80412,13.9446,4.87376,14.0142Q4.94341,14.0838,4.99812,14.1657Q5.05284,14.2476,5.09053,14.3386Q5.12823,14.4296,5.14744,14.5262Q5.16665,14.6228,5.16666,14.7213Q5.16666,14.9202,5.09053,15.104Q5.0144,15.2878,4.87374,15.4284L3.99759,16.3045L4.87374,17.1806Q5.0144,17.3213,5.09053,17.505Q5.16666,17.6888,5.16666,17.8877Q5.16665,17.9862,5.14744,18.0828Q5.12823,18.1794,5.09053,18.2704Q5.05284,18.3614,4.99812,18.4433Q4.94341,18.5252,4.87376,18.5948Q4.80412,18.6645,4.72222,18.7192Q4.6403300000000005,18.7739,4.54934,18.8116Q4.45834,18.8493,4.36174,18.8685Q4.26515,18.8877,4.16666,18.8877Q3.96775,18.8877,3.78399,18.8116Q3.60023,18.7355,3.45957,18.5949L2.58333,17.7187L1.707081,18.5949Q1.56643,18.7355,1.382666,18.8116Q1.198903,18.8877,1,18.8877Q0.9015086,18.8877,0.80491,18.8685Q0.708311,18.8493,0.617317,18.8116Q0.526322,18.7739,0.44443,18.7192Q0.362537,18.6645,0.29289299999999996,18.5948Q0.22324900000000003,18.5252,0.16852999999999996,18.4433Q0.11381200000000002,18.3614,0.076121,18.2704Q0.038429999999999964,18.1794,0.019214999999999982,18.0828Q0,17.9862,0,17.8877Q0,17.6888,0.07612699999999994,17.505Q0.15225500000000003,17.3213,0.29291900000000004,17.1806L1.169062,16.3045L0.29291900000000004,15.4284L0.29291900000000004,15.4284Z" fill-rule="evenodd" fill="#FFFFFF" fill-opacity="1"/></g><g><path d="M8.38887643814087,12.66707706451416L14.72217643814087,12.66707706451416Q17.32266643814087,12.66707706451416,19.16137643814087,14.50566906451416Q20.99997643814087,16.34418706451416,20.99997643814087,18.94449706451416Q20.99997643814087,19.79674706451416,20.397376438140867,20.39847706451416Q19.79597643814087,20.99999706451416,18.944476438140867,20.99999706451416L8.38887643814087,20.99999706451416Q8.290385038140869,20.99999706451416,8.193786438140869,20.98078706451416Q8.09718743814087,20.96156706451416,8.006193438140869,20.92387706451416Q7.9151984381408695,20.88618706451416,7.833306438140869,20.83146706451416Q7.751413438140869,20.77674706451416,7.681769438140869,20.70710706451416Q7.612125438140869,20.63745706451416,7.557406438140869,20.55556706451416Q7.502688438140869,20.47367706451416,7.464997438140869,20.382677064514162Q7.427306438140869,20.29168706451416,7.408091438140869,20.195087064514162Q7.388876438140869,20.09848706451416,7.388876438140869,19.99999706451416Q7.388876438140869,19.90150706451416,7.408091438140869,19.80490706451416Q7.427306438140869,19.70830706451416,7.464997438140869,19.61731706451416Q7.502688438140869,19.52631706451416,7.557406438140869,19.44442706451416Q7.612125438140869,19.36253706451416,7.681769438140869,19.29288706451416Q7.751413438140869,19.22324706451416,7.833306438140869,19.16852706451416Q7.9151984381408695,19.11380706451416,8.006193438140869,19.07611706451416Q8.09718743814087,19.03842706451416,8.193786438140869,19.01921706451416Q8.290385038140869,18.99999706451416,8.38887643814087,18.99999706451416L18.944476438140867,18.99999706451416Q18.967376438140867,18.99999706451416,18.98417643814087,18.983197064514158Q18.99997643814087,18.96743706451416,18.99997643814087,18.94449706451416Q18.99997643814087,17.17264706451416,17.74720643814087,15.91992706451416Q16.49427643814087,14.66707706451416,14.72217643814087,14.66707706451416L8.38887643814087,14.66707706451416Q8.290385038140869,14.66707706451416,8.193786438140869,14.647862064514161Q8.09718743814087,14.62864706451416,8.006193438140869,14.59095606451416Q7.9151984381408695,14.55326506451416,7.833306438140869,14.49854706451416Q7.751413438140869,14.443828064514161,7.681769438140869,14.37418406451416Q7.612125438140869,14.30454006451416,7.557406438140869,14.22264706451416Q7.502688438140869,14.14075506451416,7.464997438140869,14.04976006451416Q7.427306438140869,13.95876606451416,7.408091438140869,13.86216706451416Q7.388876438140869,13.76556846451416,7.388876438140869,13.66707706451416Q7.388876438140869,13.56858566451416,7.408091438140869,13.47198706451416Q7.427306438140869,13.37538806451416,7.464997438140869,13.28439406451416Q7.502688438140869,13.19339906451416,7.557406438140869,13.11150706451416Q7.612125438140869,13.02961406451416,7.681769438140869,12.95997006451416Q7.751413438140869,12.89032606451416,7.833306438140869,12.83560706451416Q7.9151984381408695,12.78088906451416,8.006193438140869,12.74319806451416Q8.09718743814087,12.70550706451416,8.193786438140869,12.68629206451416Q8.290385038140869,12.66707706451416,8.38887643814087,12.66707706451416Z" fill-rule="evenodd" fill="#FFFFFF" fill-opacity="1"/></g></g></svg>