<svg xmlns="http://www.w3.org/2000/svg" xmlns:xlink="http://www.w3.org/1999/xlink" fill="currentColor" version="1.1" viewBox="0 0 19.28 19.28"><g><g><path d="M18.2496875,10.28815625Q20.3301875,3.18367625,18.2000875,1.06751225Q16.0707875,-1.04787375,8.9790875,1.02739925Q2.1260575,3.03283625,0.45030950000000003,5.78157625Q-0.7394324999999999,7.74430625,1.2146685000000002,9.53927625Q2.8440275,11.03595625,6.8579375,12.41655625Q8.2379775,16.432056250000002,9.7340275,18.06205625Q11.5284875,20.01725625,13.4895875,18.82755625Q16.2405875,17.14905625,18.2496875,10.28815625ZM9.3161175,2.1790962499999997Q15.7276875,0.30284125,17.3542875,1.91882625Q18.9778875,3.53173625,17.0980875,9.95091625Q15.2193875,16.366356250000003,12.8670875,17.80155625Q11.7472875,18.48095625,10.6180875,17.25065625Q9.2424475,15.75185625,7.8997675,11.75265625Q7.8549175,11.61905625,7.7552875,11.51945625Q7.6556575,11.41975625,7.5220775,11.37495625Q3.5246275,10.03171625,2.0264474999999997,8.65553625Q0.7963755,7.52562625,1.4749165,6.40621625Q2.9088775,4.05408625,9.3161175,2.1790962499999997Z" fill-rule="evenodd" fill="currentColor" fill-opacity="1"></path></g><g><path d="M12.947361716308594,7.174135084655762Q13.031711716308592,7.089749084655762,13.077361716308594,6.979511084655762Q13.123011716308593,6.869273084655762,13.123011716308593,6.749957084655762Q13.123011716308593,6.690862284655761,13.111481716308594,6.632903084655761Q13.099951716308594,6.574943084655762,13.077331716308594,6.520347084655762Q13.054721716308594,6.465750084655761,13.021891716308595,6.416615084655762Q12.989061716308594,6.367479084655762,12.947271716308594,6.325693084655762Q12.905481716308593,6.283907084655762,12.856351716308595,6.251075084655762Q12.807211716308593,6.218244084655762,12.752611716308593,6.195629084655762Q12.698021716308594,6.173015084655762,12.640061716308594,6.1614860846557615Q12.582101716308593,6.149957084655762,12.523011716308595,6.149957084655762Q12.403631716308594,6.149957084655762,12.293341716308593,6.195653084655762Q12.183051716308594,6.241348084655762,12.098661716308595,6.325779084655761L6.907253716308594,11.519287084655762L6.906971716308593,11.519577084655761Q6.822619716308594,11.603957084655761,6.776970716308593,11.714197084655762Q6.731321716308594,11.824437084655763,6.731321716308594,11.943747084655762Q6.731321716308594,12.002847084655762,6.742850716308594,12.060807084655762Q6.754379716308594,12.118767084655762,6.776993716308594,12.173357084655763Q6.799608716308594,12.227957084655761,6.832439716308594,12.277097084655761Q6.865271716308594,12.326227084655763,6.907057716308594,12.368017084655762Q6.948843716308594,12.40979708465576,6.997979716308594,12.442637084655761Q7.047114716308593,12.475467084655762,7.101711716308594,12.498077084655762Q7.156307716308594,12.520697084655762,7.214267716308593,12.532217084655763Q7.272226916308593,12.543747084655763,7.331321716308594,12.543747084655763Q7.450700716308594,12.543747084655763,7.560987716308594,12.498057084655763Q7.671274716308594,12.452357084655763,7.755671716308594,12.367927084655761L12.947361716308594,7.174135084655762L12.947361716308594,7.174135084655762Z" fill-rule="evenodd" fill="currentColor" fill-opacity="1"></path></g></g></svg>