<svg xmlns="http://www.w3.org/2000/svg" xmlns:xlink="http://www.w3.org/1999/xlink" fill="none" version="1.1" viewBox="0 0 31 37"><g><path d="M5.89344,32.7409C7.38962,31.1131,9.67036,31.2426,10.9841,33.0184L12.8269,35.5156C14.3048,37.4948,16.695,37.4948,18.173,35.5156L20.0158,33.0184C21.3295,31.2426,23.6103,31.1131,25.1064,32.7409C28.3542,36.2555,30.9999,35.0901,30.9999,30.1697L30.9999,9.32286C31.0181,1.86826,29.303,0,22.406,0L8.6121,0C1.71512,0,0,1.86826,0,9.32286L0,30.1512C0,35.0901,2.66391,36.237,5.89344,32.7409ZM7.80848,11.098C6.80495,11.098,5.98389,10.2656,5.98389,9.24821C5.98389,8.23083,6.80495,7.39844,7.80848,7.39844C8.81201,7.39844,9.63307,8.23083,9.63307,9.24821C9.63307,10.2656,8.81201,11.098,7.80848,11.098ZM23.228,10.6379L13.1927,10.6379C12.4447,10.6379,11.8242,10.009,11.8242,9.25061C11.8242,8.4922,12.4447,7.86328,13.1927,7.86328L23.228,7.86328C23.9761,7.86328,24.5964,8.4922,24.5964,9.25061C24.5964,10.009,23.9761,10.6379,23.228,10.6379ZM5.98389,16.6466C5.98389,17.664,6.80495,18.4964,7.80848,18.4964C8.81201,18.4964,9.63307,17.664,9.63307,16.6466C9.63307,15.6293,8.81201,14.7969,7.80848,14.7969C6.80495,14.7969,5.98389,15.6293,5.98389,16.6466ZM13.1927,18.0364L23.228,18.0364C23.9761,18.0364,24.5964,17.4074,24.5964,16.649C24.5964,15.8906,23.9761,15.2617,23.228,15.2617L13.1927,15.2617C12.4447,15.2617,11.8242,15.8906,11.8242,16.649C11.8242,17.4074,12.4447,18.0364,13.1927,18.0364Z" fill-rule="evenodd" fill="currentColor" fill-opacity="1" style="mix-blend-mode:passthrough"/></g></svg>