<svg xmlns="http://www.w3.org/2000/svg" xmlns:xlink="http://www.w3.org/1999/xlink" fill="currentColor" version="1.1" width="auto" height="auto" viewBox="0 0 18.200000047683716 20.200000047683716"><g style="opacity:1;"><path d="M0.31513902384185793,4.381830023841857L0.3148660238418579,4.381980023841858Q0.24345802384185788,4.420550023841858,0.1848620238418579,4.4767000238418575Q0.12626602384185792,4.532850023841858,0.08469402384185787,4.602550023841858Q0.043122023841857926,4.672260023841858,0.021561023841857874,4.750500023841858Q2.384185793236071e-8,4.828740023841858,2.384185793236071e-8,4.909900023841858L2.384185793236071e-8,13.513400023841857Q2.384185793236071e-8,15.176900023841858,1.419307023841858,15.973900023841859L8.805190023841858,20.12260002384186L8.806160023841858,20.123100023841857Q8.943020023841857,20.20000002384186,9.100000023841858,20.20000002384186Q9.256970023841857,20.20000002384186,9.393830023841858,20.123100023841857L9.394550023841857,20.12270002384186L16.781300023841858,15.973800023841857Q18.20000002384186,15.176700023841859,18.20000002384186,13.513400023841857L18.20000002384186,4.909900023841858L18.20000002384186,4.905090023841858Q18.199300023841857,4.824550023841858,18.17750002384186,4.747030023841858Q18.155600023841856,4.669500023841858,18.114100023841857,4.600490023841858Q18.072500023841858,4.531480023841858,18.01430002384186,4.475870023841858Q17.95600002384186,4.420260023841858,17.885100023841858,4.381980023841858L10.366820023841857,0.3212650238418579Q9.100000023841858,-0.36277197615814205,7.833120023841858,0.32129702384185793L0.31513902384185793,4.381830023841857ZM1.200000023841858,5.935040023841858L1.200000023841858,13.513400023841857Q1.200000023841858,14.474500023841857,2.006850023841858,14.927600023841858L8.500000023841858,18.574800023841856L8.500000023841858,13.545100023841858Q7.307000023841858,13.363500023841858,6.414230023841858,12.437800023841858Q5.312500023841858,11.295300023841857,5.312500023841858,9.684080023841858Q5.312500023841858,8.996120023841858,5.531860023841858,8.368020023841858L1.200000023841858,5.935040023841858ZM6.827940023841858,8.388320023841857Q6.5125000238418576,8.991310023841859,6.5125000238418576,9.684080023841858Q6.5125000238418576,10.811000023841858,7.2780100238418575,11.604800023841857Q8.034670023841858,12.389400023841858,9.100000023841858,12.389400023841858Q10.165330023841857,12.389400023841858,10.922000023841857,11.604800023841857Q11.687500023841858,10.811000023841858,11.687500023841858,9.684080023841858Q11.687500023841858,8.990940023841858,11.371800023841859,8.387750023841857Q10.634000023841859,6.978770023841858,9.100000023841858,6.978770023841858Q7.566590023841858,6.978770023841858,6.828800023841858,8.386690023841858L6.828280023841858,8.387690023841857L6.828250023841858,8.387740023841857L6.828240023841858,8.387760023841857L6.827940023841858,8.388320023841857Z" fill-rule="evenodd" fill="currentColor" fill-opacity="1"/></g></svg>