<svg xmlns="http://www.w3.org/2000/svg" xmlns:xlink="http://www.w3.org/1999/xlink" fill="none" version="1.1" viewBox="0 0 23.59326171875 23.55078125"><g><g transform="matrix(0,1,-1,0,23.470731735229492,5.939104080200195)"><path d="M14.868343827514648,14.756632807714844C14.521943827514647,14.580955907714843,14.071363827514649,14.864428907714844,13.170023827514648,15.431388907714844L12.93677382751465,15.578069907714843C12.680623827514648,15.739187907714843,12.552543827514649,15.819727907714844,12.408873827514649,15.842857907714844C12.265213827514648,15.865967907714843,12.122033827514649,15.829027907714844,11.835863827514649,15.755167907714844L11.575233827514648,15.687908907714844C10.568053827514648,15.427956907714844,10.064373827514649,15.297980907714845,9.776043827514648,15.575781907714843C9.487708827514648,15.853577907714843,9.60549682751465,16.355177907714843,9.84124382751465,17.358377907714843L9.902293827514649,17.617917907714844C9.96915382751465,17.902987907714845,10.002663827514649,18.045517907714842,9.975453827514649,18.187067907714844C9.948243827514649,18.328617907714843,9.863473827514648,18.453137907714844,9.693922827514648,18.702147907714846L9.53946982751465,18.928857907714843C8.942560827514649,19.80519790771484,8.644105827514649,20.243357907714845,8.812328927514649,20.590737907714843C8.980717827514649,20.938107907714844,9.504132827514649,20.964627907714842,10.551133827514649,21.017677907714845L10.822043827514648,21.031397907714844C11.119503827514649,21.046477907714845,11.268313827514648,21.054037907714843,11.395233827514648,21.118387907714844C11.522143827514649,21.182707907714843,11.612893827514648,21.296637907714842,11.794213827514648,21.524397907714842L11.959453827514649,21.731787907714843C12.597673827514647,22.533297907714843,12.916863827514648,22.934077907714844,13.309223827514648,22.87098790771484C13.701573827514649,22.807867907714844,13.907283827514648,22.322657907714845,14.31872382751465,21.352257907714844L14.425063827514649,21.101197907714845C14.542023827514647,20.825457907714842,14.600423827514648,20.687587907714843,14.706093827514648,20.585787907714845C14.811613827514648,20.484037907714843,14.952463827514649,20.429937907714844,15.234323827514649,20.321647907714844L15.49064382751465,20.223137907714843C16.482063827514647,19.842167907714845,16.97776382751465,19.651717907714843,17.052093827514646,19.265317907714845C17.12625382751465,18.87895790771484,16.72991382751465,18.552547907714843,15.937073827514649,17.899757907714843L15.732023827514649,17.730857907714842C15.506733827514648,17.545357907714845,15.394083827514649,17.452607907714842,15.332533827514649,17.325357907714842C15.270823827514649,17.198107907714842,15.267173827514648,17.050777907714846,15.260043827514648,16.756087907714843L15.25340382751465,16.487807907714846C15.22768382751465,15.450806907714844,15.214913827514648,14.932325907714844,14.868343827514648,14.756632807714844Z" fill="#FFFFFF" fill-opacity="1"/></g><g transform="matrix(0,1,-1,0,23.565433025360107,18.664074420928955)"><path d="M3.002421302215576,21.20802372314453C2.876077302215576,21.083663723144532,2.671480302215576,21.083663723144532,2.545307202215576,21.20802372314453C2.4191367022155763,21.33236672314453,2.4191367022155763,21.533944723144533,2.545307202215576,21.658304723144532L4.335929302215576,23.472173723144532C4.462109302215576,23.596523723144532,4.666619302215576,23.596523723144532,4.792969302215576,23.472173723144532C4.9191393022155765,23.347813723144533,4.9191393022155765,23.14620372314453,4.792969302215576,23.02185372314453L3.002421302215576,21.20802372314453Z" fill="#FFFFFF" fill-opacity="1"/></g><g><path d="M19.54827638885498,9.671726477177735C19.49757638885498,9.668332022177735,19.44233638885498,9.668708863777734,19.38512638885498,9.668708863777734L19.37082638885498,9.668708863777734L17.12530638885498,9.668708863777734C15.27452638885498,9.668708863777734,13.69080638885498,11.158807357177734,13.69080638885498,13.102497357177734C13.69080638885498,15.045807357177734,15.27452638885498,16.536277357177735,17.12530638885498,16.536277357177735L19.37082638885498,16.536277357177735L19.38512638885498,16.536277357177735C19.44233638885498,16.536277357177735,19.49757638885498,16.536277357177735,19.54827638885498,16.532897357177735C20.300076388854983,16.484247357177736,20.96491638885498,15.882477357177734,21.020816388854982,15.042037357177733C21.02453638885498,14.986987357177735,21.02445638885498,14.927417357177735,21.02445638885498,14.872367357177733L21.02445638885498,14.857287357177734L21.02445638885498,11.347337357177734L21.02445638885498,11.332247357177735C21.02445638885498,11.277197357177734,21.02453638885498,11.218007357177735,21.020816388854982,11.162577357177735C20.96491638885498,10.322135357177734,20.300076388854983,9.720364957177734,19.54827638885498,9.671726477177735ZM16.926306388854982,14.017967357177735C17.40272638885498,14.017967357177735,17.78906638885498,13.608117357177735,17.78906638885498,13.102497357177734C17.78906638885498,12.596497357177734,17.40272638885498,12.186647357177733,16.926306388854982,12.186647357177733C16.449776388854982,12.186647357177733,16.06343638885498,12.596497357177734,16.06343638885498,13.102497357177734C16.06343638885498,13.608117357177735,16.449776388854982,14.017967357177735,16.926306388854982,14.017967357177735Z" fill-rule="evenodd" fill="#FFFFFF" fill-opacity="1"/></g><g><path d="M19.58287882537842,18.164363707733152C19.619078825378416,18.032763707733153,19.518078825378417,17.906463707733153,19.38467882537842,17.90986370773315L17.125478825378416,17.90986370773315C14.586278825378418,17.90986370773315,12.348278825378419,15.857963707733154,12.348278825378419,13.102453707733154C12.348278825378419,10.346983707733155,14.586278825378418,8.295083707733154,17.125478825378416,8.295083707733154L19.38467882537842,8.295083707733154C19.518078825378417,8.298473707733155,19.619078825378416,8.172163707733155,19.58287882537842,8.040573707733154C19.40317882537842,7.388283707733154,19.11797882537842,6.8321337077331545,18.66037882537842,6.364213707733154C17.990478825378418,5.6787367077331545,17.14107882537842,5.374834707733155,16.09157882537842,5.230426707733154C15.071878825378418,5.090163707733154,13.768878825378417,5.090163707733154,12.123798825378419,5.090163707733154L10.232598825378417,5.090163707733154C8.587538825378418,5.090163707733154,7.284548825378418,5.090163707733154,6.264798825378418,5.230426707733154C5.215328825378418,5.374834707733155,4.365908825378418,5.6787367077331545,3.6960188253784176,6.364213707733154C3.026136825378418,7.0493137077331545,2.728853825378418,7.918413707733155,2.587754825378418,8.991863707733154C2.450653140878418,10.035163707733155,2.450660580478418,11.368033707733154,2.450678825378418,13.050803707733154L2.450678825378418,13.154593707733154C2.450678189933418,13.305433707733155,2.450677566358418,13.453473707733155,2.450775749678418,13.598743707733155C2.522827025378418,13.434763707733154,2.621591825378418,13.322363707733155,2.760902825378418,13.254833707733154C3.203020825378418,13.040733707733153,3.760668825378418,13.420573707733155,4.875978825378418,14.180253707733154L4.876028825378418,14.180283707733155L5.164558825378418,14.376863707733154C5.481488825378418,14.592653707733154,5.639968825378418,14.700543707733154,5.820118825378418,14.735173707733153C6.000018825378418,14.769753707733154,6.181168825378418,14.727273707733154,6.542968825378418,14.642413707733155L6.544498825378418,14.642063707733154L6.874818825378418,14.564363707733154C8.151618825378417,14.264323707733155,8.790008825378418,14.114403707733155,9.143578825378418,14.481373707733153C9.497138825378418,14.848353707733155,9.331718825378417,15.489363707733155,9.000868825378419,16.771263707733155L8.91526882537842,17.102963707733153C8.821258825378418,17.467163707733157,8.774248825378418,17.649363707733155,8.803658825378417,17.832263707733155C8.833098825378418,18.015063707733155,8.935608825378418,18.178163707733155,9.140668825378418,18.504163707733156L9.327348825378419,18.800963707733153L9.327598825378418,18.801363707733152C10.049018825378418,19.948263707733155,10.409688825378417,20.521663707733154,10.186128825378418,20.962463707733153C10.156878825378417,21.020163707733154,10.120178825378417,21.070563707733154,10.075498825378418,21.114763707733154L10.232598825378417,21.114763707733154L12.123798825378419,21.114763707733154C13.768878825378417,21.114763707733154,15.071878825378418,21.114763707733154,16.09157882537842,20.974463707733154C17.14107882537842,20.830063707733153,17.990478825378418,20.526163707733154,18.66037882537842,19.840663707733157C19.11797882537842,19.372763707733156,19.40317882537842,18.816663707733156,19.58287882537842,18.164363707733152ZM5.136058825378418,9.439803707733155C5.136058825378418,9.060493707733155,5.436658825378418,8.752813707733154,5.807428825378418,8.752813707733154L9.387928825378417,8.752813707733154C9.758698825378417,8.752813707733154,10.059298825378418,9.060493707733155,10.059298825378418,9.439803707733155C10.059298825378418,9.819113707733155,9.758698825378417,10.126413707733153,9.387928825378417,10.126413707733153L5.807428825378418,10.126413707733153C5.436658825378418,10.126413707733153,5.136058825378418,9.819113707733155,5.136058825378418,9.439803707733155Z" fill-rule="evenodd" fill="#FFFFFF" fill-opacity="1"/></g><g><path d="M7.815351486206055,4.170555007705689L9.634481486206054,2.8101660077056883C10.611391486206054,2.0796700077056887,11.934971486206056,2.0796700077056887,12.911891486206056,2.8101660077056883L14.740561486206055,4.177725007705688C13.975991486206055,4.147555007705688,13.122141486206054,4.147555007705688,12.186021486206055,4.147555007705688L10.170191486206054,4.147555007705688C9.314791486206055,4.147555007705688,8.528070486206055,4.147555007705688,7.815351486206055,4.170555007705689Z" fill="#FFFFFF" fill-opacity="1"/></g><g><path d="M19.2600801751709,0.289565C19.409420175170897,-0.0965217,19.945830175170897,-0.0965217,20.0951601751709,0.289565L20.4948801751709,1.322C20.5405701751709,1.43988,20.632320175170896,1.53319,20.7478601751709,1.57968L21.7612501751709,1.98686C22.1405301751709,2.13915,22.1405301751709,2.68553,21.7612501751709,2.83782L20.7478601751709,3.245C20.632320175170896,3.29149,20.5405701751709,3.38481,20.4948801751709,3.50267L20.0955301751709,4.53511C19.945830175170897,4.92121,19.409420175170897,4.92121,19.2600801751709,4.53511L18.8603801751709,3.50267C18.8146801751709,3.38481,18.7232901751709,3.29149,18.6073901751709,3.245L17.5940011751709,2.83782C17.2150913751709,2.68553,17.2150913751709,2.13915,17.5940011751709,1.98686L18.6073901751709,1.57968C18.7232901751709,1.53319,18.8146801751709,1.43988,18.8603801751709,1.322L19.2600801751709,0.289565Z" fill="#FFFFFF" fill-opacity="1"/></g><g><path d="M21.705527670288085,4.437115046142578C21.854857670288087,4.051016246142578,22.391277670288087,4.051016246142578,22.540977670288086,4.437115046142578L22.686597670288087,4.813486046142578C22.732297670288087,4.931426046142578,22.823677670288085,5.024746046142578,22.939577670288084,5.0711980461425785L23.308827670288085,5.219681046142578C23.688107670288087,5.371891046142578,23.688107670288087,5.918351046142578,23.308827670288085,6.070571046142578L22.939577670288084,6.219051046142578C22.823677670288085,6.265501046142578,22.732297670288087,6.358861046142579,22.686597670288087,6.4767610461425775L22.540977670288086,6.853131046142578C22.391277670288087,7.239231046142578,21.854857670288087,7.239231046142578,21.705527670288085,6.853131046142578L21.559904670288088,6.4767610461425775C21.514212670288085,6.358861046142579,21.422459670288085,6.265501046142578,21.306927670288086,6.219051046142578L20.937308670288086,6.070571046142578C20.558398870288087,5.918351046142578,20.558398870288087,5.371891046142578,20.937308670288086,5.219681046142578L21.306927670288086,5.0711980461425785C21.422459670288085,5.024746046142578,21.514212670288085,4.931426046142578,21.559904670288088,4.813486046142578L21.705527670288085,4.437115046142578Z" fill="#FFFFFF" fill-opacity="1"/></g></g></svg>